<mxfile host="app.diagrams.net" modified="2024-05-16T14:38:08.662Z" agent="Mozilla/5.0 (Windows NT 10.0; Win64; x64) AppleWebKit/537.36 (KHTML, like Gecko) Chrome/124.0.0.0 Safari/537.36" etag="0C5atdrzPfEJUpuFzmSs" version="24.4.2" type="github">
  <diagram name="Page 1" id="5bk7Gb2YT2sqerDLHxE1">
    <mxGraphModel dx="1434" dy="1915" grid="1" gridSize="10" guides="1" tooltips="1" connect="1" arrows="1" fold="1" page="1" pageScale="1" pageWidth="827" pageHeight="1169" math="0" shadow="0">
      <root>
        <mxCell id="0" />
        <mxCell id="1" parent="0" />
        <UserObject label="" tags="Arrière-plan" id="-43leVQ_KwWmYCP5Dvzr-1">
          <mxCell style="vsdxID=1;fillColor=none;gradientColor=none;strokeColor=none;spacingTop=-3;spacingBottom=-3;spacingLeft=-3;spacingRight=-3;points=[[0,0.5,0],[1,0.5,0],[0.5,1,0],[0.5,0,0]];labelBackgroundColor=none;rounded=1;html=1;whiteSpace=wrap;" vertex="1" parent="1">
            <mxGeometry x="1014" y="-384" width="101" height="50" as="geometry" />
          </mxCell>
        </UserObject>
        <mxCell id="-43leVQ_KwWmYCP5Dvzr-2" style="vsdxID=2;fillColor=#ffffff;gradientColor=none;shape=stencil(jZNNDoIwEIVP023TzkSBpfHnAp6ASJVGBFNRwdOLTJG2opFV++ZN5uvLwHB5ydOzYiAutamO6q6zOme4YgC6zJXRdXdiuGa43FdGHUx1LTO6n9POCaJXVEY98uUGkZrdVj8UaYKjjGZUoM5TdXtNbKg+1Fpr728bcu6uhqySinHMYzujla5fNGAJhBVaKwBwjBLns+MaDBusMHMIxGICYuywQhTxOfgYLmhINkx+PzwgGScXunSCAj8ozz5BKblMfM6RALzsBkL3Heg7/s0mSOZr+PAJ6TMNABCE9DuiX7vUHfqVpWXWRUEb79bDFe8k+j1w/QQ=);strokeColor=#282c33;spacingTop=-3;spacingBottom=-3;spacingLeft=-3;spacingRight=-3;points=[[0,0.5,0],[1,0.5,0],[0.5,1,0],[0.5,0,0]];labelBackgroundColor=none;rounded=1;html=1;whiteSpace=wrap;" vertex="1" parent="-43leVQ_KwWmYCP5Dvzr-1">
          <mxGeometry width="101" height="50" as="geometry" />
        </mxCell>
        <mxCell id="-43leVQ_KwWmYCP5Dvzr-3" value="&lt;div style=&quot;font-size: 1px&quot;&gt;&lt;p style=&quot;text-align:center;margin-left:0;margin-right:0;margin-top:0px;margin-bottom:0px;text-indent:0;vertical-align:middle;direction:ltr;&quot;&gt;&lt;font style=&quot;font-size:14.11px;font-family:Arial;color:#3a414a;direction:ltr;letter-spacing:0px;line-height:100%;opacity:1&quot;&gt;Situation Politique&lt;/font&gt;&lt;/p&gt;&lt;/div&gt;" style="text;vsdxID=1;fillColor=none;gradientColor=none;strokeColor=none;spacingTop=-3;spacingBottom=-3;spacingLeft=-3;spacingRight=-3;points=[[0,0.5,0],[1,0.5,0],[0.5,1,0],[0.5,0,0]];labelBackgroundColor=none;rounded=1;html=1;whiteSpace=wrap;verticalAlign=middle;align=center;overflow=width;;html=1;" vertex="1" parent="-43leVQ_KwWmYCP5Dvzr-1">
          <mxGeometry x="3.17" y="2.38" width="95.25" height="44.45" as="geometry" />
        </mxCell>
        <UserObject label="" tags="Arrière-plan" id="-43leVQ_KwWmYCP5Dvzr-4">
          <mxCell style="vsdxID=3;edgeStyle=none;startArrow=none;endArrow=block;startSize=5;endSize=5;strokeColor=#3a414a;spacingTop=-3;spacingBottom=-3;spacingLeft=-3;spacingRight=-3;verticalAlign=middle;html=1;labelBackgroundColor=none;rounded=1;" edge="1" parent="1">
            <mxGeometry relative="1" as="geometry">
              <mxPoint y="-1" as="offset" />
              <Array as="points" />
              <mxPoint x="1065" y="-333" as="sourcePoint" />
              <mxPoint x="1065" y="-282" as="targetPoint" />
            </mxGeometry>
          </mxCell>
        </UserObject>
        <UserObject label="" tags="Arrière-plan" id="-43leVQ_KwWmYCP5Dvzr-5">
          <mxCell style="vsdxID=4;fillColor=none;gradientColor=none;strokeColor=none;spacingTop=-3;spacingBottom=-3;spacingLeft=-3;spacingRight=-3;points=[[0,0.5,0],[1,0.5,0],[0.5,1,0],[0.5,0,0]];labelBackgroundColor=none;rounded=1;html=1;whiteSpace=wrap;" vertex="1" parent="1">
            <mxGeometry x="1014" y="-282" width="101" height="50" as="geometry" />
          </mxCell>
        </UserObject>
        <mxCell id="-43leVQ_KwWmYCP5Dvzr-6" style="vsdxID=5;fillColor=#ffffff;gradientColor=none;shape=stencil(jZNNDoIwEIVP023TzkSBpfHnAp6ASJVGBFNRwdOLTJG2opFV++ZN5uvLwHB5ydOzYiAutamO6q6zOme4YgC6zJXRdXdiuGa43FdGHUx1LTO6n9POCaJXVEY98uUGkZrdVj8UaYKjjGZUoM5TdXtNbKg+1Fpr728bcu6uhqySinHMYzujla5fNGAJhBVaKwBwjBLns+MaDBusMHMIxGICYuywQhTxOfgYLmhINkx+PzwgGScXunSCAj8ozz5BKblMfM6RALzsBkL3Heg7/s0mSOZr+PAJ6TMNABCE9DuiX7vUHfqVpWXWRUEb79bDFe8k+j1w/QQ=);strokeColor=#282c33;spacingTop=-3;spacingBottom=-3;spacingLeft=-3;spacingRight=-3;points=[[0,0.5,0],[1,0.5,0],[0.5,1,0],[0.5,0,0]];labelBackgroundColor=none;rounded=1;html=1;whiteSpace=wrap;" vertex="1" parent="-43leVQ_KwWmYCP5Dvzr-5">
          <mxGeometry width="101" height="50" as="geometry" />
        </mxCell>
        <mxCell id="-43leVQ_KwWmYCP5Dvzr-7" value="&lt;div style=&quot;font-size: 1px&quot;&gt;&lt;p style=&quot;text-align:center;margin-left:0;margin-right:0;margin-top:0px;margin-bottom:0px;text-indent:0;vertical-align:middle;direction:ltr;&quot;&gt;&lt;font style=&quot;font-size:14.11px;font-family:Arial;color:#3a414a;direction:ltr;letter-spacing:0px;line-height:100%;opacity:1&quot;&gt;Date&lt;br/&gt;Terminale&lt;/font&gt;&lt;/p&gt;&lt;/div&gt;" style="text;vsdxID=4;fillColor=none;gradientColor=none;strokeColor=none;spacingTop=-3;spacingBottom=-3;spacingLeft=-3;spacingRight=-3;points=[[0,0.5,0],[1,0.5,0],[0.5,1,0],[0.5,0,0]];labelBackgroundColor=none;rounded=1;html=1;whiteSpace=wrap;verticalAlign=middle;align=center;overflow=width;;html=1;" vertex="1" parent="-43leVQ_KwWmYCP5Dvzr-5">
          <mxGeometry x="3.17" y="2.38" width="95.25" height="44.45" as="geometry" />
        </mxCell>
        <UserObject label="" tags="Arrière-plan" id="-43leVQ_KwWmYCP5Dvzr-8">
          <mxCell style="vsdxID=6;fillColor=none;gradientColor=none;strokeColor=none;spacingTop=-3;spacingBottom=-3;spacingLeft=-3;spacingRight=-3;points=[[0,0.5,0],[1,0.5,0],[0.5,1,0],[0.5,0,0],[2.36,0.71,0]];labelBackgroundColor=none;rounded=1;html=1;whiteSpace=wrap;" vertex="1" parent="1">
            <mxGeometry x="1816" y="-254" width="101" height="50" as="geometry" />
          </mxCell>
        </UserObject>
        <mxCell id="-43leVQ_KwWmYCP5Dvzr-9" style="vsdxID=7;fillColor=#ffffff;gradientColor=none;shape=stencil(jZNNDoIwEIVP023TzkSBpfHnAp6ASJVGBFNRwdOLTJG2opFV++ZN5uvLwHB5ydOzYiAutamO6q6zOme4YgC6zJXRdXdiuGa43FdGHUx1LTO6n9POCaJXVEY98uUGkZrdVj8UaYKjjGZUoM5TdXtNbKg+1Fpr728bcu6uhqySinHMYzujla5fNGAJhBVaKwBwjBLns+MaDBusMHMIxGICYuywQhTxOfgYLmhINkx+PzwgGScXunSCAj8ozz5BKblMfM6RALzsBkL3Heg7/s0mSOZr+PAJ6TMNABCE9DuiX7vUHfqVpWXWRUEb79bDFe8k+j1w/QQ=);strokeColor=#282c33;spacingTop=-3;spacingBottom=-3;spacingLeft=-3;spacingRight=-3;points=[[0,0.5,0],[1,0.5,0],[0.5,1,0],[0.5,0,0]];labelBackgroundColor=none;rounded=1;html=1;whiteSpace=wrap;" vertex="1" parent="-43leVQ_KwWmYCP5Dvzr-8">
          <mxGeometry width="101" height="50" as="geometry" />
        </mxCell>
        <mxCell id="-43leVQ_KwWmYCP5Dvzr-10" value="&lt;div style=&quot;font-size: 1px&quot;&gt;&lt;p style=&quot;text-align:center;margin-left:0;margin-right:0;margin-top:0px;margin-bottom:0px;text-indent:0;vertical-align:middle;direction:ltr;&quot;&gt;&lt;font style=&quot;font-size:14.11px;font-family:Arial;color:#3a414a;direction:ltr;letter-spacing:0px;line-height:100%;opacity:1&quot;&gt;Retour à l&amp;prime;Ordre Moral&lt;/font&gt;&lt;/p&gt;&lt;/div&gt;" style="text;vsdxID=6;fillColor=none;gradientColor=none;strokeColor=none;spacingTop=-3;spacingBottom=-3;spacingLeft=-3;spacingRight=-3;points=[[0,0.5,0],[1,0.5,0],[0.5,1,0],[0.5,0,0],[2.36,0.71,0]];labelBackgroundColor=none;rounded=1;html=1;whiteSpace=wrap;verticalAlign=middle;align=center;overflow=width;;html=1;" vertex="1" parent="-43leVQ_KwWmYCP5Dvzr-8">
          <mxGeometry x="3.17" y="2.38" width="95.25" height="44.45" as="geometry" />
        </mxCell>
        <UserObject label="" tags="Arrière-plan" id="-43leVQ_KwWmYCP5Dvzr-11">
          <mxCell style="vsdxID=8;edgeStyle=none;startArrow=none;endArrow=block;startSize=5;endSize=5;strokeColor=#3a414a;spacingTop=-3;spacingBottom=-3;spacingLeft=-3;spacingRight=-3;verticalAlign=middle;html=1;labelBackgroundColor=none;rounded=1;" edge="1" parent="1">
            <mxGeometry relative="1" as="geometry">
              <mxPoint as="offset" />
              <Array as="points" />
              <mxPoint x="1866" y="-204" as="sourcePoint" />
              <mxPoint x="1866" y="-118" as="targetPoint" />
            </mxGeometry>
          </mxCell>
        </UserObject>
        <UserObject label="" tags="Arrière-plan" id="-43leVQ_KwWmYCP5Dvzr-12">
          <mxCell style="vsdxID=9;fillColor=none;gradientColor=none;strokeColor=none;spacingTop=-3;spacingBottom=-3;spacingLeft=-3;spacingRight=-3;points=[[0,0.5,0],[1,0.5,0],[0.5,1,0],[0.5,0,0]];labelBackgroundColor=none;rounded=1;html=1;whiteSpace=wrap;" vertex="1" parent="1">
            <mxGeometry x="1816" y="-118" width="101" height="57" as="geometry" />
          </mxCell>
        </UserObject>
        <mxCell id="-43leVQ_KwWmYCP5Dvzr-13" style="vsdxID=10;fillColor=#ffffff;gradientColor=none;shape=stencil(lZNNboMwEIVP461lz0ANyypJL9AToOAEqwQih7Shpw9hjPwTqqis7DfvyZ+HMcPNpanOmoG4DLb/0j+mHhqGWwZgukZbM0wrhjuGm0Nv9dH2166m/bmanCBmRdeUkQ83iMruP82vJk1wlCqnAiVP/ffjxBvVleRFQeXRJebdB5n3V0tuScVC8Sxzdhn6xQ0chHDC6AQAjij8J9EFMA04ISt5WXoI8b7C4UNOUIq/qZgkZE3hlsPD6yc8/vDWdEHHoODLFcaVxAor8Dwvwy9G91AQdXSBDq+GseMfHUv69edfgRfQMeMCFDYFn+ZopYsv5m5azBNOs2/alh5IWE9fxCTRa8LdHQ==);strokeColor=#282c33;spacingTop=-3;spacingBottom=-3;spacingLeft=-3;spacingRight=-3;points=[[0,0.5,0],[1,0.5,0],[0.5,1,0],[0.5,0,0]];labelBackgroundColor=none;rounded=1;html=1;whiteSpace=wrap;" vertex="1" parent="-43leVQ_KwWmYCP5Dvzr-12">
          <mxGeometry width="101" height="57" as="geometry" />
        </mxCell>
        <mxCell id="-43leVQ_KwWmYCP5Dvzr-14" value="&lt;div style=&quot;font-size: 1px&quot;&gt;&lt;p style=&quot;text-align:center;margin-left:0;margin-right:0;margin-top:0px;margin-bottom:0px;text-indent:0;vertical-align:middle;direction:ltr;&quot;&gt;&lt;font style=&quot;font-size:14.11px;font-family:Arial;color:#3a414a;direction:ltr;letter-spacing:0px;line-height:100%;opacity:1&quot;&gt;En appeller aux Croix-de-Feu&lt;/font&gt;&lt;/p&gt;&lt;/div&gt;" style="text;vsdxID=9;fillColor=none;gradientColor=none;strokeColor=none;spacingTop=-3;spacingBottom=-3;spacingLeft=-3;spacingRight=-3;points=[[0,0.5,0],[1,0.5,0],[0.5,1,0],[0.5,0,0]];labelBackgroundColor=none;rounded=1;html=1;whiteSpace=wrap;verticalAlign=middle;align=center;overflow=width;;html=1;" vertex="1" parent="-43leVQ_KwWmYCP5Dvzr-12">
          <mxGeometry x="3.17" y="3.02" width="95.25" height="50.8" as="geometry" />
        </mxCell>
        <UserObject label="" tags="Arrière-plan" id="-43leVQ_KwWmYCP5Dvzr-15">
          <mxCell style="vsdxID=11;fillColor=none;gradientColor=none;strokeColor=none;spacingTop=-3;spacingBottom=-3;spacingLeft=-3;spacingRight=-3;points=[[0,0.5,0],[1,0.5,0],[0.5,1,0],[0.5,0,0],[1.29,-1.44,0]];labelBackgroundColor=none;rounded=1;html=1;whiteSpace=wrap;" vertex="1" parent="1">
            <mxGeometry x="2120" y="-70" width="101" height="57" as="geometry" />
          </mxCell>
        </UserObject>
        <mxCell id="-43leVQ_KwWmYCP5Dvzr-16" style="vsdxID=12;fillColor=#ffffff;gradientColor=none;shape=stencil(lZNNboMwEIVP461lz0ANyypJL9AToOAEqwQih7Shpw9hjPwTqqis7DfvyZ+HMcPNpanOmoG4DLb/0j+mHhqGWwZgukZbM0wrhjuGm0Nv9dH2166m/bmanCBmRdeUkQ83iMruP82vJk1wlCqnAiVP/ffjxBvVleRFQeXRJebdB5n3V0tuScVC8Sxzdhn6xQ0chHDC6AQAjij8J9EFMA04ISt5WXoI8b7C4UNOUIq/qZgkZE3hlsPD6yc8/vDWdEHHoODLFcaVxAor8Dwvwy9G91AQdXSBDq+GseMfHUv69edfgRfQMeMCFDYFn+ZopYsv5m5azBNOs2/alh5IWE9fxCTRa8LdHQ==);strokeColor=#282c33;spacingTop=-3;spacingBottom=-3;spacingLeft=-3;spacingRight=-3;points=[[0,0.5,0],[1,0.5,0],[0.5,1,0],[0.5,0,0]];labelBackgroundColor=none;rounded=1;html=1;whiteSpace=wrap;" vertex="1" parent="-43leVQ_KwWmYCP5Dvzr-15">
          <mxGeometry width="101" height="57" as="geometry" />
        </mxCell>
        <mxCell id="-43leVQ_KwWmYCP5Dvzr-17" value="&lt;div style=&quot;font-size: 1px&quot;&gt;&lt;p style=&quot;text-align:center;margin-left:0;margin-right:0;margin-top:0px;margin-bottom:0px;text-indent:0;vertical-align:middle;direction:ltr;&quot;&gt;&lt;font style=&quot;font-size:14.11px;font-family:Arial;color:#3a414a;direction:ltr;letter-spacing:0px;line-height:100%;opacity:1&quot;&gt;Ni communisme, ni nazisme !&lt;/font&gt;&lt;/p&gt;&lt;/div&gt;" style="text;vsdxID=11;fillColor=none;gradientColor=none;strokeColor=none;spacingTop=-3;spacingBottom=-3;spacingLeft=-3;spacingRight=-3;points=[[0,0.5,0],[1,0.5,0],[0.5,1,0],[0.5,0,0],[1.29,-1.44,0]];labelBackgroundColor=none;rounded=1;html=1;whiteSpace=wrap;verticalAlign=middle;align=center;overflow=width;;html=1;" vertex="1" parent="-43leVQ_KwWmYCP5Dvzr-15">
          <mxGeometry x="3.17" y="3.02" width="95.25" height="50.8" as="geometry" />
        </mxCell>
        <UserObject label="" tags="Arrière-plan" id="-43leVQ_KwWmYCP5Dvzr-18">
          <mxCell style="vsdxID=13;edgeStyle=none;startArrow=none;endArrow=block;startSize=5;endSize=5;strokeColor=#3a414a;spacingTop=-3;spacingBottom=-3;spacingLeft=-3;spacingRight=-3;verticalAlign=middle;html=1;labelBackgroundColor=none;rounded=1;" edge="1" parent="1">
            <mxGeometry relative="1" as="geometry">
              <mxPoint as="offset" />
              <Array as="points" />
              <mxPoint x="1866" y="-61" as="sourcePoint" />
              <mxPoint x="1866" y="25" as="targetPoint" />
            </mxGeometry>
          </mxCell>
        </UserObject>
        <UserObject label="" tags="Arrière-plan" id="-43leVQ_KwWmYCP5Dvzr-19">
          <mxCell style="vsdxID=14;fillColor=none;gradientColor=none;strokeColor=none;spacingTop=-3;spacingBottom=-3;spacingLeft=-3;spacingRight=-3;points=[[0,0.5,0],[1,0.5,0],[0.5,1,0],[0.5,0,0]];labelBackgroundColor=none;rounded=1;html=1;whiteSpace=wrap;" vertex="1" parent="1">
            <mxGeometry x="1816" y="25" width="101" height="50" as="geometry" />
          </mxCell>
        </UserObject>
        <mxCell id="-43leVQ_KwWmYCP5Dvzr-20" style="vsdxID=15;fillColor=#ffffff;gradientColor=none;shape=stencil(jZNNDoIwEIVP023TzkSBpfHnAp6ASJVGBFNRwdOLTJG2opFV++ZN5uvLwHB5ydOzYiAutamO6q6zOme4YgC6zJXRdXdiuGa43FdGHUx1LTO6n9POCaJXVEY98uUGkZrdVj8UaYKjjGZUoM5TdXtNbKg+1Fpr728bcu6uhqySinHMYzujla5fNGAJhBVaKwBwjBLns+MaDBusMHMIxGICYuywQhTxOfgYLmhINkx+PzwgGScXunSCAj8ozz5BKblMfM6RALzsBkL3Heg7/s0mSOZr+PAJ6TMNABCE9DuiX7vUHfqVpWXWRUEb79bDFe8k+j1w/QQ=);strokeColor=#282c33;spacingTop=-3;spacingBottom=-3;spacingLeft=-3;spacingRight=-3;points=[[0,0.5,0],[1,0.5,0],[0.5,1,0],[0.5,0,0]];labelBackgroundColor=none;rounded=1;html=1;whiteSpace=wrap;" vertex="1" parent="-43leVQ_KwWmYCP5Dvzr-19">
          <mxGeometry width="101" height="50" as="geometry" />
        </mxCell>
        <mxCell id="-43leVQ_KwWmYCP5Dvzr-21" value="&lt;div style=&quot;font-size: 1px&quot;&gt;&lt;p style=&quot;text-align:center;margin-left:0;margin-right:0;margin-top:0px;margin-bottom:0px;text-indent:0;vertical-align:middle;direction:ltr;&quot;&gt;&lt;font style=&quot;font-size:14.11px;font-family:Arial;color:#3a414a;direction:ltr;letter-spacing:0px;line-height:100%;opacity:1&quot;&gt;Le PSF au pouvoir !&lt;/font&gt;&lt;/p&gt;&lt;/div&gt;" style="text;vsdxID=14;fillColor=none;gradientColor=none;strokeColor=none;spacingTop=-3;spacingBottom=-3;spacingLeft=-3;spacingRight=-3;points=[[0,0.5,0],[1,0.5,0],[0.5,1,0],[0.5,0,0]];labelBackgroundColor=none;rounded=1;html=1;whiteSpace=wrap;verticalAlign=middle;align=center;overflow=width;;html=1;" vertex="1" parent="-43leVQ_KwWmYCP5Dvzr-19">
          <mxGeometry x="3.17" y="2.38" width="95.25" height="44.45" as="geometry" />
        </mxCell>
        <UserObject label="" tags="Arrière-plan" id="-43leVQ_KwWmYCP5Dvzr-22">
          <mxCell style="vsdxID=16;edgeStyle=none;startArrow=none;endArrow=block;startSize=5;endSize=5;strokeColor=#3a414a;spacingTop=-3;spacingBottom=-3;spacingLeft=-3;spacingRight=-3;verticalAlign=middle;html=1;labelBackgroundColor=none;rounded=1;" edge="1" parent="1">
            <mxGeometry relative="1" as="geometry">
              <mxPoint x="-1" y="-1" as="offset" />
              <Array as="points">
                <mxPoint x="1657.88" y="50" />
                <mxPoint x="1657.88" y="53.18" />
              </Array>
              <mxPoint x="1816" y="50" as="sourcePoint" />
              <mxPoint x="1498" y="53" as="targetPoint" />
            </mxGeometry>
          </mxCell>
        </UserObject>
        <UserObject label="" tags="Arrière-plan" id="-43leVQ_KwWmYCP5Dvzr-23">
          <mxCell style="vsdxID=17;fillColor=none;gradientColor=none;strokeColor=none;spacingTop=-3;spacingBottom=-3;spacingLeft=-3;spacingRight=-3;points=[[0,0.5,0],[1,0.5,0],[0.5,1,0],[0.5,0,0]];labelBackgroundColor=none;rounded=1;html=1;whiteSpace=wrap;" vertex="1" parent="1">
            <mxGeometry x="1397" y="25" width="101" height="57" as="geometry" />
          </mxCell>
        </UserObject>
        <mxCell id="-43leVQ_KwWmYCP5Dvzr-24" style="vsdxID=18;fillColor=#ffffff;gradientColor=none;shape=stencil(lZNNboMwEIVP461lz0ANyypJL9AToOAEqwQih7Shpw9hjPwTqqis7DfvyZ+HMcPNpanOmoG4DLb/0j+mHhqGWwZgukZbM0wrhjuGm0Nv9dH2166m/bmanCBmRdeUkQ83iMruP82vJk1wlCqnAiVP/ffjxBvVleRFQeXRJebdB5n3V0tuScVC8Sxzdhn6xQ0chHDC6AQAjij8J9EFMA04ISt5WXoI8b7C4UNOUIq/qZgkZE3hlsPD6yc8/vDWdEHHoODLFcaVxAor8Dwvwy9G91AQdXSBDq+GseMfHUv69edfgRfQMeMCFDYFn+ZopYsv5m5azBNOs2/alh5IWE9fxCTRa8LdHQ==);strokeColor=#282c33;spacingTop=-3;spacingBottom=-3;spacingLeft=-3;spacingRight=-3;points=[[0,0.5,0],[1,0.5,0],[0.5,1,0],[0.5,0,0]];labelBackgroundColor=none;rounded=1;html=1;whiteSpace=wrap;" vertex="1" parent="-43leVQ_KwWmYCP5Dvzr-23">
          <mxGeometry width="101" height="57" as="geometry" />
        </mxCell>
        <mxCell id="-43leVQ_KwWmYCP5Dvzr-25" value="&lt;div style=&quot;font-size: 1px&quot;&gt;&lt;p style=&quot;text-align:center;margin-left:0;margin-right:0;margin-top:0px;margin-bottom:0px;text-indent:0;vertical-align:middle;direction:ltr;&quot;&gt;&lt;font style=&quot;font-size:14.11px;font-family:Arial;color:#3a414a;direction:ltr;letter-spacing:0px;line-height:100%;opacity:1&quot;&gt;Révision de la politique extérieure&lt;/font&gt;&lt;/p&gt;&lt;/div&gt;" style="text;vsdxID=17;fillColor=none;gradientColor=none;strokeColor=none;spacingTop=-3;spacingBottom=-3;spacingLeft=-3;spacingRight=-3;points=[[0,0.5,0],[1,0.5,0],[0.5,1,0],[0.5,0,0]];labelBackgroundColor=none;rounded=1;html=1;whiteSpace=wrap;verticalAlign=middle;align=center;overflow=width;;html=1;" vertex="1" parent="-43leVQ_KwWmYCP5Dvzr-23">
          <mxGeometry x="3.17" y="3.02" width="95.25" height="50.8" as="geometry" />
        </mxCell>
        <UserObject label="" tags="Arrière-plan" id="-43leVQ_KwWmYCP5Dvzr-26">
          <mxCell style="vsdxID=19;edgeStyle=none;startArrow=none;endArrow=block;startSize=5;endSize=5;strokeColor=#3a414a;spacingTop=-3;spacingBottom=-3;spacingLeft=-3;spacingRight=-3;verticalAlign=middle;html=1;labelBackgroundColor=none;rounded=1;" edge="1" parent="1">
            <mxGeometry relative="1" as="geometry">
              <mxPoint as="offset" />
              <Array as="points" />
              <mxPoint x="1917" y="50" as="sourcePoint" />
              <mxPoint x="2221" y="50" as="targetPoint" />
            </mxGeometry>
          </mxCell>
        </UserObject>
        <UserObject label="" tags="Arrière-plan" id="-43leVQ_KwWmYCP5Dvzr-27">
          <mxCell style="vsdxID=20;edgeStyle=none;startArrow=none;endArrow=block;startSize=5;endSize=5;strokeColor=#3a414a;spacingTop=-3;spacingBottom=-3;spacingLeft=-3;spacingRight=-3;verticalAlign=middle;html=1;labelBackgroundColor=none;rounded=1;" edge="1" parent="1">
            <mxGeometry relative="1" as="geometry">
              <mxPoint y="-1" as="offset" />
              <Array as="points">
                <mxPoint x="2171" y="5.42" />
                <mxPoint x="2272.6" y="5.42" />
              </Array>
              <mxPoint x="2171" y="-13" as="sourcePoint" />
              <mxPoint x="2273" y="25" as="targetPoint" />
            </mxGeometry>
          </mxCell>
        </UserObject>
        <UserObject label="" tags="Arrière-plan" id="-43leVQ_KwWmYCP5Dvzr-28">
          <mxCell style="vsdxID=21;fillColor=none;gradientColor=none;strokeColor=none;spacingTop=-3;spacingBottom=-3;spacingLeft=-3;spacingRight=-3;points=[[0,0.5,0],[1,0.5,0],[0.5,1,0],[0.5,0,0]];labelBackgroundColor=none;rounded=1;html=1;whiteSpace=wrap;" vertex="1" parent="1">
            <mxGeometry x="2222" y="25" width="101" height="50" as="geometry" />
          </mxCell>
        </UserObject>
        <mxCell id="-43leVQ_KwWmYCP5Dvzr-29" style="vsdxID=22;fillColor=#ffffff;gradientColor=none;shape=stencil(jZNNDoIwEIVP023TzkSBpfHnAp6ASJVGBFNRwdOLTJG2opFV++ZN5uvLwHB5ydOzYiAutamO6q6zOme4YgC6zJXRdXdiuGa43FdGHUx1LTO6n9POCaJXVEY98uUGkZrdVj8UaYKjjGZUoM5TdXtNbKg+1Fpr728bcu6uhqySinHMYzujla5fNGAJhBVaKwBwjBLns+MaDBusMHMIxGICYuywQhTxOfgYLmhINkx+PzwgGScXunSCAj8ozz5BKblMfM6RALzsBkL3Heg7/s0mSOZr+PAJ6TMNABCE9DuiX7vUHfqVpWXWRUEb79bDFe8k+j1w/QQ=);strokeColor=#282c33;spacingTop=-3;spacingBottom=-3;spacingLeft=-3;spacingRight=-3;points=[[0,0.5,0],[1,0.5,0],[0.5,1,0],[0.5,0,0]];labelBackgroundColor=none;rounded=1;html=1;whiteSpace=wrap;" vertex="1" parent="-43leVQ_KwWmYCP5Dvzr-28">
          <mxGeometry width="101" height="50" as="geometry" />
        </mxCell>
        <mxCell id="-43leVQ_KwWmYCP5Dvzr-30" value="&lt;div style=&quot;font-size: 1px&quot;&gt;&lt;p style=&quot;text-align:center;margin-left:0;margin-right:0;margin-top:0px;margin-bottom:0px;text-indent:0;vertical-align:middle;direction:ltr;&quot;&gt;&lt;font style=&quot;font-size:14.11px;font-family:Arial;color:#3a414a;direction:ltr;letter-spacing:0px;line-height:100%;opacity:1&quot;&gt;Fin de la décadence&lt;/font&gt;&lt;/p&gt;&lt;/div&gt;" style="text;vsdxID=21;fillColor=none;gradientColor=none;strokeColor=none;spacingTop=-3;spacingBottom=-3;spacingLeft=-3;spacingRight=-3;points=[[0,0.5,0],[1,0.5,0],[0.5,1,0],[0.5,0,0]];labelBackgroundColor=none;rounded=1;html=1;whiteSpace=wrap;verticalAlign=middle;align=center;overflow=width;;html=1;" vertex="1" parent="-43leVQ_KwWmYCP5Dvzr-28">
          <mxGeometry x="3.17" y="2.38" width="95.25" height="44.45" as="geometry" />
        </mxCell>
        <UserObject label="" tags="Arrière-plan" id="-43leVQ_KwWmYCP5Dvzr-31">
          <mxCell style="vsdxID=23;edgeStyle=none;startArrow=none;endArrow=block;startSize=5;endSize=5;strokeColor=#3a414a;spacingTop=-3;spacingBottom=-3;spacingLeft=-3;spacingRight=-3;verticalAlign=middle;html=1;labelBackgroundColor=none;rounded=1;" edge="1" parent="1">
            <mxGeometry relative="1" as="geometry">
              <mxPoint x="-52" as="offset" />
              <Array as="points">
                <mxPoint x="1168.23" y="82" />
                <mxPoint x="1168.23" y="170.9" />
              </Array>
              <mxPoint x="1447" y="82" as="sourcePoint" />
              <mxPoint x="787" y="114" as="targetPoint" />
            </mxGeometry>
          </mxCell>
        </UserObject>
        <UserObject label="" tags="Arrière-plan" id="-43leVQ_KwWmYCP5Dvzr-32">
          <mxCell style="vsdxID=24;fillColor=none;gradientColor=none;strokeColor=none;spacingTop=-3;spacingBottom=-3;spacingLeft=-3;spacingRight=-3;points=[[0,0.5,0],[1,0.5,0],[0.5,1,0],[0.5,0,0]];labelBackgroundColor=none;rounded=1;html=1;whiteSpace=wrap;" vertex="1" parent="1">
            <mxGeometry x="736" y="114" width="101" height="57" as="geometry" />
          </mxCell>
        </UserObject>
        <mxCell id="-43leVQ_KwWmYCP5Dvzr-33" style="vsdxID=25;fillColor=#ffffff;gradientColor=none;shape=stencil(lZNNboMwEIVP461lz0ANyypJL9AToOAEqwQih7Shpw9hjPwTqqis7DfvyZ+HMcPNpanOmoG4DLb/0j+mHhqGWwZgukZbM0wrhjuGm0Nv9dH2166m/bmanCBmRdeUkQ83iMruP82vJk1wlCqnAiVP/ffjxBvVleRFQeXRJebdB5n3V0tuScVC8Sxzdhn6xQ0chHDC6AQAjij8J9EFMA04ISt5WXoI8b7C4UNOUIq/qZgkZE3hlsPD6yc8/vDWdEHHoODLFcaVxAor8Dwvwy9G91AQdXSBDq+GseMfHUv69edfgRfQMeMCFDYFn+ZopYsv5m5azBNOs2/alh5IWE9fxCTRa8LdHQ==);strokeColor=#282c33;spacingTop=-3;spacingBottom=-3;spacingLeft=-3;spacingRight=-3;points=[[0,0.5,0],[1,0.5,0],[0.5,1,0],[0.5,0,0]];labelBackgroundColor=none;rounded=1;html=1;whiteSpace=wrap;" vertex="1" parent="-43leVQ_KwWmYCP5Dvzr-32">
          <mxGeometry width="101" height="57" as="geometry" />
        </mxCell>
        <mxCell id="-43leVQ_KwWmYCP5Dvzr-34" value="&lt;div style=&quot;font-size: 1px&quot;&gt;&lt;p style=&quot;text-align:center;margin-left:0;margin-right:0;margin-top:0px;margin-bottom:0px;text-indent:0;vertical-align:middle;direction:ltr;&quot;&gt;&lt;font style=&quot;font-size:14.11px;font-family:Arial;color:#3a414a;direction:ltr;letter-spacing:0px;line-height:100%;opacity:1&quot;&gt;Situation coloniale&lt;/font&gt;&lt;/p&gt;&lt;/div&gt;" style="text;vsdxID=24;fillColor=none;gradientColor=none;strokeColor=none;spacingTop=-3;spacingBottom=-3;spacingLeft=-3;spacingRight=-3;points=[[0,0.5,0],[1,0.5,0],[0.5,1,0],[0.5,0,0]];labelBackgroundColor=none;rounded=1;html=1;whiteSpace=wrap;verticalAlign=middle;align=center;overflow=width;;html=1;" vertex="1" parent="-43leVQ_KwWmYCP5Dvzr-32">
          <mxGeometry x="3.17" y="3.02" width="95.25" height="50.8" as="geometry" />
        </mxCell>
        <UserObject label="" tags="Arrière-plan" id="-43leVQ_KwWmYCP5Dvzr-35">
          <mxCell style="vsdxID=26;edgeStyle=none;startArrow=none;endArrow=block;startSize=5;endSize=5;strokeColor=#3a414a;spacingTop=-3;spacingBottom=-3;spacingLeft=-3;spacingRight=-3;verticalAlign=middle;html=1;labelBackgroundColor=none;rounded=1;" edge="1" parent="1">
            <mxGeometry relative="1" as="geometry">
              <mxPoint x="-1" y="-1" as="offset" />
              <Array as="points">
                <mxPoint x="723.93" y="142" />
                <mxPoint x="723.93" y="215.03" />
              </Array>
              <mxPoint x="736" y="142" as="sourcePoint" />
              <mxPoint x="711" y="215" as="targetPoint" />
            </mxGeometry>
          </mxCell>
        </UserObject>
        <UserObject label="" tags="Arrière-plan" id="-43leVQ_KwWmYCP5Dvzr-36">
          <mxCell style="vsdxID=27;fillColor=none;gradientColor=none;strokeColor=none;spacingTop=-3;spacingBottom=-3;spacingLeft=-3;spacingRight=-3;points=[[0,0.5,0],[1,0.5,0],[0.5,1,0],[0.5,0,0],[0.76,0.95,0]];labelBackgroundColor=none;rounded=1;html=1;whiteSpace=wrap;" vertex="1" parent="1">
            <mxGeometry x="609" y="190" width="101" height="50" as="geometry" />
          </mxCell>
        </UserObject>
        <mxCell id="-43leVQ_KwWmYCP5Dvzr-37" style="vsdxID=28;fillColor=#ffffff;gradientColor=none;shape=stencil(jZNNDoIwEIVP023TzkSBpfHnAp6ASJVGBFNRwdOLTJG2opFV++ZN5uvLwHB5ydOzYiAutamO6q6zOme4YgC6zJXRdXdiuGa43FdGHUx1LTO6n9POCaJXVEY98uUGkZrdVj8UaYKjjGZUoM5TdXtNbKg+1Fpr728bcu6uhqySinHMYzujla5fNGAJhBVaKwBwjBLns+MaDBusMHMIxGICYuywQhTxOfgYLmhINkx+PzwgGScXunSCAj8ozz5BKblMfM6RALzsBkL3Heg7/s0mSOZr+PAJ6TMNABCE9DuiX7vUHfqVpWXWRUEb79bDFe8k+j1w/QQ=);strokeColor=#282c33;spacingTop=-3;spacingBottom=-3;spacingLeft=-3;spacingRight=-3;points=[[0,0.5,0],[1,0.5,0],[0.5,1,0],[0.5,0,0]];labelBackgroundColor=none;rounded=1;html=1;whiteSpace=wrap;" vertex="1" parent="-43leVQ_KwWmYCP5Dvzr-36">
          <mxGeometry width="101" height="50" as="geometry" />
        </mxCell>
        <mxCell id="-43leVQ_KwWmYCP5Dvzr-38" value="&lt;div style=&quot;font-size: 1px&quot;&gt;&lt;p style=&quot;text-align:center;margin-left:0;margin-right:0;margin-top:0px;margin-bottom:0px;text-indent:0;vertical-align:middle;direction:ltr;&quot;&gt;&lt;font style=&quot;font-size:14.11px;font-family:Arial;color:#3a414a;direction:ltr;letter-spacing:0px;line-height:100%;opacity:1&quot;&gt;Troubles algériens&lt;/font&gt;&lt;/p&gt;&lt;/div&gt;" style="text;vsdxID=27;fillColor=none;gradientColor=none;strokeColor=none;spacingTop=-3;spacingBottom=-3;spacingLeft=-3;spacingRight=-3;points=[[0,0.5,0],[1,0.5,0],[0.5,1,0],[0.5,0,0],[0.76,0.95,0]];labelBackgroundColor=none;rounded=1;html=1;whiteSpace=wrap;verticalAlign=middle;align=center;overflow=width;;html=1;" vertex="1" parent="-43leVQ_KwWmYCP5Dvzr-36">
          <mxGeometry x="3.17" y="2.38" width="95.25" height="44.45" as="geometry" />
        </mxCell>
        <UserObject label="" tags="Arrière-plan" id="-43leVQ_KwWmYCP5Dvzr-39">
          <mxCell style="vsdxID=29;edgeStyle=none;startArrow=none;endArrow=block;startSize=5;endSize=5;strokeColor=#3a414a;spacingTop=-3;spacingBottom=-3;spacingLeft=-3;spacingRight=-3;verticalAlign=middle;html=1;labelBackgroundColor=none;rounded=1;" edge="1" parent="1">
            <mxGeometry relative="1" as="geometry">
              <mxPoint y="-1" as="offset" />
              <Array as="points">
                <mxPoint x="850.06" y="142" />
                <mxPoint x="850.06" y="215.03" />
              </Array>
              <mxPoint x="838" y="142" as="sourcePoint" />
              <mxPoint x="863" y="215" as="targetPoint" />
            </mxGeometry>
          </mxCell>
        </UserObject>
        <UserObject label="" tags="Arrière-plan" id="-43leVQ_KwWmYCP5Dvzr-40">
          <mxCell style="vsdxID=30;fillColor=none;gradientColor=none;strokeColor=none;spacingTop=-3;spacingBottom=-3;spacingLeft=-3;spacingRight=-3;points=[[0,0.5,0],[1,0.5,0],[0.5,1,0],[0.5,0,0],[-0.14,0.92,0]];labelBackgroundColor=none;rounded=1;html=1;whiteSpace=wrap;" vertex="1" parent="1">
            <mxGeometry x="863" y="187" width="101" height="57" as="geometry" />
          </mxCell>
        </UserObject>
        <mxCell id="-43leVQ_KwWmYCP5Dvzr-41" style="vsdxID=31;fillColor=#ffffff;gradientColor=none;shape=stencil(lZNNboMwEIVP461lz0ANyypJL9AToOAEqwQih7Shpw9hjPwTqqis7DfvyZ+HMcPNpanOmoG4DLb/0j+mHhqGWwZgukZbM0wrhjuGm0Nv9dH2166m/bmanCBmRdeUkQ83iMruP82vJk1wlCqnAiVP/ffjxBvVleRFQeXRJebdB5n3V0tuScVC8Sxzdhn6xQ0chHDC6AQAjij8J9EFMA04ISt5WXoI8b7C4UNOUIq/qZgkZE3hlsPD6yc8/vDWdEHHoODLFcaVxAor8Dwvwy9G91AQdXSBDq+GseMfHUv69edfgRfQMeMCFDYFn+ZopYsv5m5azBNOs2/alh5IWE9fxCTRa8LdHQ==);strokeColor=#282c33;spacingTop=-3;spacingBottom=-3;spacingLeft=-3;spacingRight=-3;points=[[0,0.5,0],[1,0.5,0],[0.5,1,0],[0.5,0,0]];labelBackgroundColor=none;rounded=1;html=1;whiteSpace=wrap;" vertex="1" parent="-43leVQ_KwWmYCP5Dvzr-40">
          <mxGeometry width="101" height="57" as="geometry" />
        </mxCell>
        <mxCell id="-43leVQ_KwWmYCP5Dvzr-42" value="&lt;div style=&quot;font-size: 1px&quot;&gt;&lt;p style=&quot;text-align:center;margin-left:0;margin-right:0;margin-top:0px;margin-bottom:0px;text-indent:0;vertical-align:middle;direction:ltr;&quot;&gt;&lt;font style=&quot;font-size:14.11px;font-family:Arial;color:#3a414a;direction:ltr;letter-spacing:0px;line-height:100%;opacity:1&quot;&gt;Pas un autre Yen Bai !&lt;/font&gt;&lt;/p&gt;&lt;/div&gt;" style="text;vsdxID=30;fillColor=none;gradientColor=none;strokeColor=none;spacingTop=-3;spacingBottom=-3;spacingLeft=-3;spacingRight=-3;points=[[0,0.5,0],[1,0.5,0],[0.5,1,0],[0.5,0,0],[-0.14,0.92,0]];labelBackgroundColor=none;rounded=1;html=1;whiteSpace=wrap;verticalAlign=middle;align=center;overflow=width;;html=1;" vertex="1" parent="-43leVQ_KwWmYCP5Dvzr-40">
          <mxGeometry x="3.17" y="3.02" width="95.25" height="50.8" as="geometry" />
        </mxCell>
        <UserObject label="" tags="Arrière-plan" id="-43leVQ_KwWmYCP5Dvzr-43">
          <mxCell style="vsdxID=32;fillColor=none;gradientColor=none;strokeColor=none;spacingTop=-3;spacingBottom=-3;spacingLeft=-3;spacingRight=-3;points=[[0,0.5,0],[1,0.5,0],[0.5,1,0],[0.5,0,0],[-0.36,1.01,0]];labelBackgroundColor=none;rounded=1;html=1;whiteSpace=wrap;" vertex="1" parent="1">
            <mxGeometry x="863" y="254" width="101" height="57" as="geometry" />
          </mxCell>
        </UserObject>
        <mxCell id="-43leVQ_KwWmYCP5Dvzr-44" style="vsdxID=33;fillColor=#ffffff;gradientColor=none;shape=stencil(lZNNboMwEIVP461lz0ANyypJL9AToOAEqwQih7Shpw9hjPwTqqis7DfvyZ+HMcPNpanOmoG4DLb/0j+mHhqGWwZgukZbM0wrhjuGm0Nv9dH2166m/bmanCBmRdeUkQ83iMruP82vJk1wlCqnAiVP/ffjxBvVleRFQeXRJebdB5n3V0tuScVC8Sxzdhn6xQ0chHDC6AQAjij8J9EFMA04ISt5WXoI8b7C4UNOUIq/qZgkZE3hlsPD6yc8/vDWdEHHoODLFcaVxAor8Dwvwy9G91AQdXSBDq+GseMfHUv69edfgRfQMeMCFDYFn+ZopYsv5m5azBNOs2/alh5IWE9fxCTRa8LdHQ==);strokeColor=#282c33;spacingTop=-3;spacingBottom=-3;spacingLeft=-3;spacingRight=-3;points=[[0,0.5,0],[1,0.5,0],[0.5,1,0],[0.5,0,0]];labelBackgroundColor=none;rounded=1;html=1;whiteSpace=wrap;" vertex="1" parent="-43leVQ_KwWmYCP5Dvzr-43">
          <mxGeometry width="101" height="57" as="geometry" />
        </mxCell>
        <mxCell id="-43leVQ_KwWmYCP5Dvzr-45" value="&lt;div style=&quot;font-size: 1px&quot;&gt;&lt;p style=&quot;text-align:center;margin-left:0;margin-right:0;margin-top:0px;margin-bottom:0px;text-indent:0;vertical-align:middle;direction:ltr;&quot;&gt;&lt;font style=&quot;font-size:14.11px;font-family:Arial;color:#3a414a;direction:ltr;letter-spacing:0px;line-height:100%;opacity:1&quot;&gt;Le Levant, perle de l&amp;prime;Orient&lt;/font&gt;&lt;/p&gt;&lt;/div&gt;" style="text;vsdxID=32;fillColor=none;gradientColor=none;strokeColor=none;spacingTop=-3;spacingBottom=-3;spacingLeft=-3;spacingRight=-3;points=[[0,0.5,0],[1,0.5,0],[0.5,1,0],[0.5,0,0],[-0.36,1.01,0]];labelBackgroundColor=none;rounded=1;html=1;whiteSpace=wrap;verticalAlign=middle;align=center;overflow=width;;html=1;" vertex="1" parent="-43leVQ_KwWmYCP5Dvzr-43">
          <mxGeometry x="3.17" y="3.02" width="95.25" height="50.8" as="geometry" />
        </mxCell>
        <UserObject label="" tags="Arrière-plan" id="-43leVQ_KwWmYCP5Dvzr-46">
          <mxCell style="vsdxID=34;fillColor=none;gradientColor=none;strokeColor=none;spacingTop=-3;spacingBottom=-3;spacingLeft=-3;spacingRight=-3;points=[[0,0.5,0],[1,0.5,0],[0.5,1,0],[0.5,0,0],[0.66,0.99,0]];labelBackgroundColor=none;rounded=1;html=1;whiteSpace=wrap;" vertex="1" parent="1">
            <mxGeometry x="609" y="254" width="101" height="57" as="geometry" />
          </mxCell>
        </UserObject>
        <mxCell id="-43leVQ_KwWmYCP5Dvzr-47" style="vsdxID=35;fillColor=#ffffff;gradientColor=none;shape=stencil(lZNNboMwEIVP461lz0ANyypJL9AToOAEqwQih7Shpw9hjPwTqqis7DfvyZ+HMcPNpanOmoG4DLb/0j+mHhqGWwZgukZbM0wrhjuGm0Nv9dH2166m/bmanCBmRdeUkQ83iMruP82vJk1wlCqnAiVP/ffjxBvVleRFQeXRJebdB5n3V0tuScVC8Sxzdhn6xQ0chHDC6AQAjij8J9EFMA04ISt5WXoI8b7C4UNOUIq/qZgkZE3hlsPD6yc8/vDWdEHHoODLFcaVxAor8Dwvwy9G91AQdXSBDq+GseMfHUv69edfgRfQMeMCFDYFn+ZopYsv5m5azBNOs2/alh5IWE9fxCTRa8LdHQ==);strokeColor=#282c33;spacingTop=-3;spacingBottom=-3;spacingLeft=-3;spacingRight=-3;points=[[0,0.5,0],[1,0.5,0],[0.5,1,0],[0.5,0,0]];labelBackgroundColor=none;rounded=1;html=1;whiteSpace=wrap;" vertex="1" parent="-43leVQ_KwWmYCP5Dvzr-46">
          <mxGeometry width="101" height="57" as="geometry" />
        </mxCell>
        <mxCell id="-43leVQ_KwWmYCP5Dvzr-48" value="&lt;div style=&quot;font-size: 1px&quot;&gt;&lt;p style=&quot;text-align:center;margin-left:0;margin-right:0;margin-top:0px;margin-bottom:0px;text-indent:0;vertical-align:middle;direction:ltr;&quot;&gt;&lt;font style=&quot;font-size:14.11px;font-family:Arial;color:#3a414a;direction:ltr;letter-spacing:0px;line-height:100%;opacity:1&quot;&gt;Reconsidérer les protectorats&lt;/font&gt;&lt;/p&gt;&lt;/div&gt;" style="text;vsdxID=34;fillColor=none;gradientColor=none;strokeColor=none;spacingTop=-3;spacingBottom=-3;spacingLeft=-3;spacingRight=-3;points=[[0,0.5,0],[1,0.5,0],[0.5,1,0],[0.5,0,0],[0.66,0.99,0]];labelBackgroundColor=none;rounded=1;html=1;whiteSpace=wrap;verticalAlign=middle;align=center;overflow=width;;html=1;" vertex="1" parent="-43leVQ_KwWmYCP5Dvzr-46">
          <mxGeometry x="3.17" y="3.02" width="95.25" height="50.8" as="geometry" />
        </mxCell>
        <UserObject label="" tags="Arrière-plan" id="-43leVQ_KwWmYCP5Dvzr-49">
          <mxCell style="vsdxID=36;edgeStyle=none;startArrow=none;endArrow=block;startSize=5;endSize=5;strokeColor=#3a414a;spacingTop=-3;spacingBottom=-3;spacingLeft=-3;spacingRight=-3;verticalAlign=middle;html=1;labelBackgroundColor=none;rounded=1;" edge="1" parent="1">
            <mxGeometry relative="1" as="geometry">
              <mxPoint x="-51" as="offset" />
              <Array as="points" />
              <mxPoint x="838" y="142" as="sourcePoint" />
              <mxPoint x="736" y="371" as="targetPoint" />
            </mxGeometry>
          </mxCell>
        </UserObject>
        <UserObject label="" tags="Arrière-plan" id="-43leVQ_KwWmYCP5Dvzr-50">
          <mxCell style="vsdxID=37;fillColor=none;gradientColor=none;strokeColor=none;spacingTop=-3;spacingBottom=-3;spacingLeft=-3;spacingRight=-3;points=[[0,0.5,0],[1,0.5,0],[0.5,1,0],[0.5,0,0],[0.31,0.44,0],[-0.62,0.46,0],[0.45,-0.81,0]];labelBackgroundColor=none;rounded=1;html=1;whiteSpace=wrap;" vertex="1" parent="1">
            <mxGeometry x="736" y="342" width="101" height="57" as="geometry" />
          </mxCell>
        </UserObject>
        <mxCell id="-43leVQ_KwWmYCP5Dvzr-51" style="vsdxID=38;fillColor=#ffffff;gradientColor=none;shape=stencil(lZNNboMwEIVP461lz0ANyypJL9AToOAEqwQih7Shpw9hjPwTqqis7DfvyZ+HMcPNpanOmoG4DLb/0j+mHhqGWwZgukZbM0wrhjuGm0Nv9dH2166m/bmanCBmRdeUkQ83iMruP82vJk1wlCqnAiVP/ffjxBvVleRFQeXRJebdB5n3V0tuScVC8Sxzdhn6xQ0chHDC6AQAjij8J9EFMA04ISt5WXoI8b7C4UNOUIq/qZgkZE3hlsPD6yc8/vDWdEHHoODLFcaVxAor8Dwvwy9G91AQdXSBDq+GseMfHUv69edfgRfQMeMCFDYFn+ZopYsv5m5azBNOs2/alh5IWE9fxCTRa8LdHQ==);strokeColor=#282c33;spacingTop=-3;spacingBottom=-3;spacingLeft=-3;spacingRight=-3;points=[[0,0.5,0],[1,0.5,0],[0.5,1,0],[0.5,0,0]];labelBackgroundColor=none;rounded=1;html=1;whiteSpace=wrap;" vertex="1" parent="-43leVQ_KwWmYCP5Dvzr-50">
          <mxGeometry width="101" height="57" as="geometry" />
        </mxCell>
        <mxCell id="-43leVQ_KwWmYCP5Dvzr-52" value="&lt;div style=&quot;font-size: 1px&quot;&gt;&lt;p style=&quot;text-align:center;margin-left:0;margin-right:0;margin-top:0px;margin-bottom:0px;text-indent:0;vertical-align:middle;direction:ltr;&quot;&gt;&lt;font style=&quot;font-size:14.11px;font-family:Arial;color:#3a414a;direction:ltr;letter-spacing:0px;line-height:100%;opacity:1&quot;&gt;Qu&amp;prime;on est bien dans les colonies !&lt;/font&gt;&lt;/p&gt;&lt;/div&gt;" style="text;vsdxID=37;fillColor=none;gradientColor=none;strokeColor=none;spacingTop=-3;spacingBottom=-3;spacingLeft=-3;spacingRight=-3;points=[[0,0.5,0],[1,0.5,0],[0.5,1,0],[0.5,0,0],[0.31,0.44,0],[-0.62,0.46,0],[0.45,-0.81,0]];labelBackgroundColor=none;rounded=1;html=1;whiteSpace=wrap;verticalAlign=middle;align=center;overflow=width;;html=1;" vertex="1" parent="-43leVQ_KwWmYCP5Dvzr-50">
          <mxGeometry x="3.17" y="3.02" width="95.25" height="50.8" as="geometry" />
        </mxCell>
        <UserObject label="" tags="Arrière-plan" id="-43leVQ_KwWmYCP5Dvzr-53">
          <mxCell style="vsdxID=39;edgeStyle=none;startArrow=none;endArrow=block;startSize=5;endSize=5;strokeColor=#3a414a;spacingTop=-3;spacingBottom=-3;spacingLeft=-3;spacingRight=-3;verticalAlign=middle;html=1;labelBackgroundColor=none;rounded=1;" edge="1" parent="1">
            <mxGeometry relative="1" as="geometry">
              <mxPoint x="-1" as="offset" />
              <Array as="points">
                <mxPoint x="690" y="325.87" />
                <mxPoint x="773.75" y="325.87" />
              </Array>
              <mxPoint x="690" y="310" as="sourcePoint" />
              <mxPoint x="774" y="342" as="targetPoint" />
            </mxGeometry>
          </mxCell>
        </UserObject>
        <UserObject label="" tags="Arrière-plan" id="-43leVQ_KwWmYCP5Dvzr-54">
          <mxCell style="vsdxID=40;edgeStyle=none;startArrow=none;endArrow=block;startSize=5;endSize=5;strokeColor=#3a414a;spacingTop=-3;spacingBottom=-3;spacingLeft=-3;spacingRight=-3;verticalAlign=middle;html=1;labelBackgroundColor=none;rounded=1;" edge="1" parent="1">
            <mxGeometry relative="1" as="geometry">
              <mxPoint x="-1" as="offset" />
              <Array as="points">
                <mxPoint x="900" y="326.24" />
                <mxPoint x="799.92" y="326.24" />
              </Array>
              <mxPoint x="900" y="311" as="sourcePoint" />
              <mxPoint x="800" y="342" as="targetPoint" />
            </mxGeometry>
          </mxCell>
        </UserObject>
        <UserObject label="" tags="Arrière-plan" id="-43leVQ_KwWmYCP5Dvzr-55">
          <mxCell style="vsdxID=41;edgeStyle=none;startArrow=none;endArrow=block;startSize=5;endSize=5;strokeColor=#3a414a;spacingTop=-3;spacingBottom=-3;spacingLeft=-3;spacingRight=-3;verticalAlign=middle;html=1;labelBackgroundColor=none;rounded=1;" edge="1" parent="1">
            <mxGeometry relative="1" as="geometry">
              <mxPoint as="offset" />
              <Array as="points">
                <mxPoint x="695" y="290.18" />
                <mxPoint x="786.69" y="290.18" />
              </Array>
              <mxPoint x="695" y="239" as="sourcePoint" />
              <mxPoint x="787" y="342" as="targetPoint" />
            </mxGeometry>
          </mxCell>
        </UserObject>
        <UserObject label="" tags="Arrière-plan" id="-43leVQ_KwWmYCP5Dvzr-56">
          <mxCell style="vsdxID=42;edgeStyle=none;startArrow=none;endArrow=block;startSize=5;endSize=5;strokeColor=#3a414a;spacingTop=-3;spacingBottom=-3;spacingLeft=-3;spacingRight=-3;verticalAlign=middle;html=1;labelBackgroundColor=none;rounded=1;" edge="1" parent="1">
            <mxGeometry relative="1" as="geometry">
              <mxPoint y="-1" as="offset" />
              <Array as="points">
                <mxPoint x="878" y="291.22" />
                <mxPoint x="786.5" y="291.22" />
              </Array>
              <mxPoint x="878" y="241" as="sourcePoint" />
              <mxPoint x="787" y="342" as="targetPoint" />
            </mxGeometry>
          </mxCell>
        </UserObject>
        <UserObject label="" tags="Arrière-plan" id="-43leVQ_KwWmYCP5Dvzr-57">
          <mxCell style="vsdxID=43;edgeStyle=none;startArrow=none;endArrow=block;startSize=5;endSize=5;strokeColor=#3a414a;spacingTop=-3;spacingBottom=-3;spacingLeft=-3;spacingRight=-3;verticalAlign=middle;html=1;labelBackgroundColor=none;rounded=1;" edge="1" parent="1">
            <mxGeometry relative="1" as="geometry">
              <mxPoint x="-52" as="offset" />
              <Array as="points">
                <mxPoint x="1371.43" y="82" />
                <mxPoint x="1371.43" y="170.9" />
              </Array>
              <mxPoint x="1447" y="82" as="sourcePoint" />
              <mxPoint x="1193" y="114" as="targetPoint" />
            </mxGeometry>
          </mxCell>
        </UserObject>
        <UserObject label="" tags="Arrière-plan" id="-43leVQ_KwWmYCP5Dvzr-58">
          <mxCell style="vsdxID=44;fillColor=none;gradientColor=none;strokeColor=none;spacingTop=-3;spacingBottom=-3;spacingLeft=-3;spacingRight=-3;points=[[0,0.5,0],[1,0.5,0],[0.5,1,0],[0.5,0,0]];labelBackgroundColor=none;rounded=1;html=1;whiteSpace=wrap;" vertex="1" parent="1">
            <mxGeometry x="1143" y="114" width="101" height="57" as="geometry" />
          </mxCell>
        </UserObject>
        <mxCell id="-43leVQ_KwWmYCP5Dvzr-59" style="vsdxID=45;fillColor=#ffffff;gradientColor=none;shape=stencil(lZNNboMwEIVP461lz0ANyypJL9AToOAEqwQih7Shpw9hjPwTqqis7DfvyZ+HMcPNpanOmoG4DLb/0j+mHhqGWwZgukZbM0wrhjuGm0Nv9dH2166m/bmanCBmRdeUkQ83iMruP82vJk1wlCqnAiVP/ffjxBvVleRFQeXRJebdB5n3V0tuScVC8Sxzdhn6xQ0chHDC6AQAjij8J9EFMA04ISt5WXoI8b7C4UNOUIq/qZgkZE3hlsPD6yc8/vDWdEHHoODLFcaVxAor8Dwvwy9G91AQdXSBDq+GseMfHUv69edfgRfQMeMCFDYFn+ZopYsv5m5azBNOs2/alh5IWE9fxCTRa8LdHQ==);strokeColor=#282c33;spacingTop=-3;spacingBottom=-3;spacingLeft=-3;spacingRight=-3;points=[[0,0.5,0],[1,0.5,0],[0.5,1,0],[0.5,0,0]];labelBackgroundColor=none;rounded=1;html=1;whiteSpace=wrap;" vertex="1" parent="-43leVQ_KwWmYCP5Dvzr-58">
          <mxGeometry width="101" height="57" as="geometry" />
        </mxCell>
        <mxCell id="-43leVQ_KwWmYCP5Dvzr-60" value="&lt;div style=&quot;font-size: 1px&quot;&gt;&lt;p style=&quot;text-align:center;margin-left:0;margin-right:0;margin-top:0px;margin-bottom:0px;text-indent:0;vertical-align:middle;direction:ltr;&quot;&gt;&lt;font style=&quot;font-size:14.11px;font-family:Arial;color:#3a414a;direction:ltr;letter-spacing:0px;line-height:100%;opacity:1&quot;&gt;La France, pilier de l&amp;prime;Europe !&lt;/font&gt;&lt;/p&gt;&lt;/div&gt;" style="text;vsdxID=44;fillColor=none;gradientColor=none;strokeColor=none;spacingTop=-3;spacingBottom=-3;spacingLeft=-3;spacingRight=-3;points=[[0,0.5,0],[1,0.5,0],[0.5,1,0],[0.5,0,0]];labelBackgroundColor=none;rounded=1;html=1;whiteSpace=wrap;verticalAlign=middle;align=center;overflow=width;;html=1;" vertex="1" parent="-43leVQ_KwWmYCP5Dvzr-58">
          <mxGeometry x="3.17" y="3.02" width="95.25" height="50.8" as="geometry" />
        </mxCell>
        <UserObject label="" tags="Arrière-plan" id="-43leVQ_KwWmYCP5Dvzr-61">
          <mxCell style="vsdxID=46;edgeStyle=none;startArrow=none;endArrow=block;startSize=5;endSize=5;strokeColor=#3a414a;spacingTop=-3;spacingBottom=-3;spacingLeft=-3;spacingRight=-3;verticalAlign=middle;html=1;labelBackgroundColor=none;rounded=1;" edge="1" parent="1">
            <mxGeometry relative="1" as="geometry">
              <mxPoint as="offset" />
              <Array as="points">
                <mxPoint x="1193" y="192.59" />
                <mxPoint x="1078.7" y="192.59" />
              </Array>
              <mxPoint x="1193" y="171" as="sourcePoint" />
              <mxPoint x="1079" y="215" as="targetPoint" />
            </mxGeometry>
          </mxCell>
        </UserObject>
        <UserObject label="" tags="Arrière-plan" id="-43leVQ_KwWmYCP5Dvzr-62">
          <mxCell style="vsdxID=47;fillColor=none;gradientColor=none;strokeColor=none;spacingTop=-3;spacingBottom=-3;spacingLeft=-3;spacingRight=-3;points=[[0,0.5,0],[1,0.5,0],[0.5,1,0],[0.5,0,0]];labelBackgroundColor=none;rounded=1;html=1;whiteSpace=wrap;" vertex="1" parent="1">
            <mxGeometry x="1028" y="215" width="101" height="57" as="geometry" />
          </mxCell>
        </UserObject>
        <mxCell id="-43leVQ_KwWmYCP5Dvzr-63" style="vsdxID=48;fillColor=#ffffff;gradientColor=none;shape=stencil(lZNNboMwEIVP461lz0ANyypJL9AToOAEqwQih7Shpw9hjPwTqqis7DfvyZ+HMcPNpanOmoG4DLb/0j+mHhqGWwZgukZbM0wrhjuGm0Nv9dH2166m/bmanCBmRdeUkQ83iMruP82vJk1wlCqnAiVP/ffjxBvVleRFQeXRJebdB5n3V0tuScVC8Sxzdhn6xQ0chHDC6AQAjij8J9EFMA04ISt5WXoI8b7C4UNOUIq/qZgkZE3hlsPD6yc8/vDWdEHHoODLFcaVxAor8Dwvwy9G91AQdXSBDq+GseMfHUv69edfgRfQMeMCFDYFn+ZopYsv5m5azBNOs2/alh5IWE9fxCTRa8LdHQ==);strokeColor=#282c33;spacingTop=-3;spacingBottom=-3;spacingLeft=-3;spacingRight=-3;points=[[0,0.5,0],[1,0.5,0],[0.5,1,0],[0.5,0,0]];labelBackgroundColor=none;rounded=1;html=1;whiteSpace=wrap;" vertex="1" parent="-43leVQ_KwWmYCP5Dvzr-62">
          <mxGeometry width="101" height="57" as="geometry" />
        </mxCell>
        <mxCell id="-43leVQ_KwWmYCP5Dvzr-64" value="&lt;div style=&quot;font-size: 1px&quot;&gt;&lt;p style=&quot;text-align:center;margin-left:0;margin-right:0;margin-top:0px;margin-bottom:0px;text-indent:0;vertical-align:middle;direction:ltr;&quot;&gt;&lt;font style=&quot;font-size:14.11px;font-family:Arial;color:#3a414a;direction:ltr;letter-spacing:0px;line-height:100%;opacity:1&quot;&gt;Préserver notre démocratie&lt;/font&gt;&lt;/p&gt;&lt;/div&gt;" style="text;vsdxID=47;fillColor=none;gradientColor=none;strokeColor=none;spacingTop=-3;spacingBottom=-3;spacingLeft=-3;spacingRight=-3;points=[[0,0.5,0],[1,0.5,0],[0.5,1,0],[0.5,0,0]];labelBackgroundColor=none;rounded=1;html=1;whiteSpace=wrap;verticalAlign=middle;align=center;overflow=width;;html=1;" vertex="1" parent="-43leVQ_KwWmYCP5Dvzr-62">
          <mxGeometry x="3.17" y="3.02" width="95.25" height="50.8" as="geometry" />
        </mxCell>
        <UserObject label="" tags="Arrière-plan" id="-43leVQ_KwWmYCP5Dvzr-65">
          <mxCell style="vsdxID=49;edgeStyle=none;startArrow=none;endArrow=block;startSize=5;endSize=5;strokeColor=#3a414a;spacingTop=-3;spacingBottom=-3;spacingLeft=-3;spacingRight=-3;verticalAlign=middle;html=1;labelBackgroundColor=none;rounded=1;" edge="1" parent="1">
            <mxGeometry relative="1" as="geometry">
              <mxPoint x="-1" as="offset" />
              <Array as="points">
                <mxPoint x="1193" y="192.59" />
                <mxPoint x="1307.3" y="192.59" />
              </Array>
              <mxPoint x="1193" y="171" as="sourcePoint" />
              <mxPoint x="1308" y="215" as="targetPoint" />
            </mxGeometry>
          </mxCell>
        </UserObject>
        <UserObject label="" tags="Arrière-plan" id="-43leVQ_KwWmYCP5Dvzr-66">
          <mxCell style="vsdxID=50;fillColor=none;gradientColor=none;strokeColor=none;spacingTop=-3;spacingBottom=-3;spacingLeft=-3;spacingRight=-3;points=[[0,0.5,0],[1,0.5,0],[0.5,1,0],[0.5,0,0]];labelBackgroundColor=none;rounded=1;html=1;whiteSpace=wrap;" vertex="1" parent="1">
            <mxGeometry x="1257" y="215" width="101" height="57" as="geometry" />
          </mxCell>
        </UserObject>
        <mxCell id="-43leVQ_KwWmYCP5Dvzr-67" style="vsdxID=51;fillColor=#ffffff;gradientColor=none;shape=stencil(lZNNboMwEIVP461lz0ANyypJL9AToOAEqwQih7Shpw9hjPwTqqis7DfvyZ+HMcPNpanOmoG4DLb/0j+mHhqGWwZgukZbM0wrhjuGm0Nv9dH2166m/bmanCBmRdeUkQ83iMruP82vJk1wlCqnAiVP/ffjxBvVleRFQeXRJebdB5n3V0tuScVC8Sxzdhn6xQ0chHDC6AQAjij8J9EFMA04ISt5WXoI8b7C4UNOUIq/qZgkZE3hlsPD6yc8/vDWdEHHoODLFcaVxAor8Dwvwy9G91AQdXSBDq+GseMfHUv69edfgRfQMeMCFDYFn+ZopYsv5m5azBNOs2/alh5IWE9fxCTRa8LdHQ==);strokeColor=#282c33;spacingTop=-3;spacingBottom=-3;spacingLeft=-3;spacingRight=-3;points=[[0,0.5,0],[1,0.5,0],[0.5,1,0],[0.5,0,0]];labelBackgroundColor=none;rounded=1;html=1;whiteSpace=wrap;" vertex="1" parent="-43leVQ_KwWmYCP5Dvzr-66">
          <mxGeometry width="101" height="57" as="geometry" />
        </mxCell>
        <mxCell id="-43leVQ_KwWmYCP5Dvzr-68" value="&lt;div style=&quot;font-size: 1px&quot;&gt;&lt;p style=&quot;text-align:center;margin-left:0;margin-right:0;margin-top:0px;margin-bottom:0px;text-indent:0;vertical-align:middle;direction:ltr;&quot;&gt;&lt;font style=&quot;font-size:14.11px;font-family:Arial;color:#3a414a;direction:ltr;letter-spacing:0px;line-height:100%;opacity:1&quot;&gt;Arsenal de l&amp;prime;Europe&lt;/font&gt;&lt;/p&gt;&lt;/div&gt;" style="text;vsdxID=50;fillColor=none;gradientColor=none;strokeColor=none;spacingTop=-3;spacingBottom=-3;spacingLeft=-3;spacingRight=-3;points=[[0,0.5,0],[1,0.5,0],[0.5,1,0],[0.5,0,0]];labelBackgroundColor=none;rounded=1;html=1;whiteSpace=wrap;verticalAlign=middle;align=center;overflow=width;;html=1;" vertex="1" parent="-43leVQ_KwWmYCP5Dvzr-66">
          <mxGeometry x="3.17" y="3.02" width="95.25" height="50.8" as="geometry" />
        </mxCell>
        <UserObject label="" tags="Arrière-plan" id="-43leVQ_KwWmYCP5Dvzr-69">
          <mxCell style="vsdxID=52;edgeStyle=none;startArrow=none;endArrow=block;startSize=5;endSize=5;strokeColor=#3a414a;spacingTop=-3;spacingBottom=-3;spacingLeft=-3;spacingRight=-3;verticalAlign=middle;html=1;labelBackgroundColor=none;rounded=1;" edge="1" parent="1">
            <mxGeometry relative="1" as="geometry">
              <mxPoint y="-1" as="offset" />
              <Array as="points" />
              <mxPoint x="1079" y="273" as="sourcePoint" />
              <mxPoint x="1079" y="323" as="targetPoint" />
            </mxGeometry>
          </mxCell>
        </UserObject>
        <UserObject label="" tags="Arrière-plan" id="-43leVQ_KwWmYCP5Dvzr-70">
          <mxCell style="vsdxID=53;fillColor=none;gradientColor=none;strokeColor=none;spacingTop=-3;spacingBottom=-3;spacingLeft=-3;spacingRight=-3;points=[[0,0.5,0],[1,0.5,0],[0.5,1,0],[0.5,0,0]];labelBackgroundColor=none;rounded=1;html=1;whiteSpace=wrap;" vertex="1" parent="1">
            <mxGeometry x="1028" y="323" width="101" height="57" as="geometry" />
          </mxCell>
        </UserObject>
        <mxCell id="-43leVQ_KwWmYCP5Dvzr-71" style="vsdxID=54;fillColor=#ffffff;gradientColor=none;shape=stencil(lZNNboMwEIVP461lz0ANyypJL9AToOAEqwQih7Shpw9hjPwTqqis7DfvyZ+HMcPNpanOmoG4DLb/0j+mHhqGWwZgukZbM0wrhjuGm0Nv9dH2166m/bmanCBmRdeUkQ83iMruP82vJk1wlCqnAiVP/ffjxBvVleRFQeXRJebdB5n3V0tuScVC8Sxzdhn6xQ0chHDC6AQAjij8J9EFMA04ISt5WXoI8b7C4UNOUIq/qZgkZE3hlsPD6yc8/vDWdEHHoODLFcaVxAor8Dwvwy9G91AQdXSBDq+GseMfHUv69edfgRfQMeMCFDYFn+ZopYsv5m5azBNOs2/alh5IWE9fxCTRa8LdHQ==);strokeColor=#282c33;spacingTop=-3;spacingBottom=-3;spacingLeft=-3;spacingRight=-3;points=[[0,0.5,0],[1,0.5,0],[0.5,1,0],[0.5,0,0]];labelBackgroundColor=none;rounded=1;html=1;whiteSpace=wrap;" vertex="1" parent="-43leVQ_KwWmYCP5Dvzr-70">
          <mxGeometry width="101" height="57" as="geometry" />
        </mxCell>
        <mxCell id="-43leVQ_KwWmYCP5Dvzr-72" value="&lt;div style=&quot;font-size: 1px&quot;&gt;&lt;p style=&quot;text-align:center;margin-left:0;margin-right:0;margin-top:0px;margin-bottom:0px;text-indent:0;vertical-align:middle;direction:ltr;&quot;&gt;&lt;font style=&quot;font-size:14.11px;font-family:Arial;color:#3a414a;direction:ltr;letter-spacing:0px;line-height:100%;opacity:1&quot;&gt;Annuler la dette grecque&lt;/font&gt;&lt;/p&gt;&lt;/div&gt;" style="text;vsdxID=53;fillColor=none;gradientColor=none;strokeColor=none;spacingTop=-3;spacingBottom=-3;spacingLeft=-3;spacingRight=-3;points=[[0,0.5,0],[1,0.5,0],[0.5,1,0],[0.5,0,0]];labelBackgroundColor=none;rounded=1;html=1;whiteSpace=wrap;verticalAlign=middle;align=center;overflow=width;;html=1;" vertex="1" parent="-43leVQ_KwWmYCP5Dvzr-70">
          <mxGeometry x="3.17" y="3.02" width="95.25" height="50.8" as="geometry" />
        </mxCell>
        <UserObject label="" tags="Arrière-plan" id="-43leVQ_KwWmYCP5Dvzr-73">
          <mxCell style="vsdxID=55;edgeStyle=none;startArrow=none;endArrow=block;startSize=5;endSize=5;strokeColor=#3a414a;spacingTop=-3;spacingBottom=-3;spacingLeft=-3;spacingRight=-3;verticalAlign=middle;html=1;labelBackgroundColor=none;rounded=1;" edge="1" parent="1">
            <mxGeometry relative="1" as="geometry">
              <mxPoint y="-1" as="offset" />
              <Array as="points" />
              <mxPoint x="1308" y="273" as="sourcePoint" />
              <mxPoint x="1308" y="323" as="targetPoint" />
            </mxGeometry>
          </mxCell>
        </UserObject>
        <UserObject label="" tags="Arrière-plan" id="-43leVQ_KwWmYCP5Dvzr-74">
          <mxCell style="vsdxID=56;fillColor=none;gradientColor=none;strokeColor=none;spacingTop=-3;spacingBottom=-3;spacingLeft=-3;spacingRight=-3;points=[[0,0.5,0],[1,0.5,0],[0.5,1,0],[0.5,0,0]];labelBackgroundColor=none;rounded=1;html=1;whiteSpace=wrap;" vertex="1" parent="1">
            <mxGeometry x="1257" y="323" width="101" height="57" as="geometry" />
          </mxCell>
        </UserObject>
        <mxCell id="-43leVQ_KwWmYCP5Dvzr-75" style="vsdxID=57;fillColor=#ffffff;gradientColor=none;shape=stencil(lZNNboMwEIVP461lz0ANyypJL9AToOAEqwQih7Shpw9hjPwTqqis7DfvyZ+HMcPNpanOmoG4DLb/0j+mHhqGWwZgukZbM0wrhjuGm0Nv9dH2166m/bmanCBmRdeUkQ83iMruP82vJk1wlCqnAiVP/ffjxBvVleRFQeXRJebdB5n3V0tuScVC8Sxzdhn6xQ0chHDC6AQAjij8J9EFMA04ISt5WXoI8b7C4UNOUIq/qZgkZE3hlsPD6yc8/vDWdEHHoODLFcaVxAor8Dwvwy9G91AQdXSBDq+GseMfHUv69edfgRfQMeMCFDYFn+ZopYsv5m5azBNOs2/alh5IWE9fxCTRa8LdHQ==);strokeColor=#282c33;spacingTop=-3;spacingBottom=-3;spacingLeft=-3;spacingRight=-3;points=[[0,0.5,0],[1,0.5,0],[0.5,1,0],[0.5,0,0]];labelBackgroundColor=none;rounded=1;html=1;whiteSpace=wrap;" vertex="1" parent="-43leVQ_KwWmYCP5Dvzr-74">
          <mxGeometry width="101" height="57" as="geometry" />
        </mxCell>
        <mxCell id="-43leVQ_KwWmYCP5Dvzr-76" value="&lt;div style=&quot;font-size: 1px&quot;&gt;&lt;p style=&quot;text-align:center;margin-left:0;margin-right:0;margin-top:0px;margin-bottom:0px;text-indent:0;vertical-align:middle;direction:ltr;&quot;&gt;&lt;font style=&quot;font-size:14.11px;font-family:Arial;color:#3a414a;direction:ltr;letter-spacing:0px;line-height:100%;opacity:1&quot;&gt;Financer la Zapadoslavie&lt;/font&gt;&lt;/p&gt;&lt;/div&gt;" style="text;vsdxID=56;fillColor=none;gradientColor=none;strokeColor=none;spacingTop=-3;spacingBottom=-3;spacingLeft=-3;spacingRight=-3;points=[[0,0.5,0],[1,0.5,0],[0.5,1,0],[0.5,0,0]];labelBackgroundColor=none;rounded=1;html=1;whiteSpace=wrap;verticalAlign=middle;align=center;overflow=width;;html=1;" vertex="1" parent="-43leVQ_KwWmYCP5Dvzr-74">
          <mxGeometry x="3.17" y="3.02" width="95.25" height="50.8" as="geometry" />
        </mxCell>
        <UserObject label="" tags="Arrière-plan" id="-43leVQ_KwWmYCP5Dvzr-77">
          <mxCell style="vsdxID=58;edgeStyle=none;startArrow=none;endArrow=block;startSize=5;endSize=5;strokeColor=#3a414a;spacingTop=-3;spacingBottom=-3;spacingLeft=-3;spacingRight=-3;verticalAlign=middle;html=1;labelBackgroundColor=none;rounded=1;" edge="1" parent="1">
            <mxGeometry relative="1" as="geometry">
              <mxPoint y="-1" as="offset" />
              <Array as="points" />
              <mxPoint x="1079" y="381" as="sourcePoint" />
              <mxPoint x="1079" y="431" as="targetPoint" />
            </mxGeometry>
          </mxCell>
        </UserObject>
        <UserObject label="" tags="Arrière-plan" id="-43leVQ_KwWmYCP5Dvzr-78">
          <mxCell style="vsdxID=59;fillColor=none;gradientColor=none;strokeColor=none;spacingTop=-3;spacingBottom=-3;spacingLeft=-3;spacingRight=-3;points=[[0,0.5,0],[1,0.5,0],[0.5,1,0],[0.5,0,0],[0.65,1.01,0]];labelBackgroundColor=none;rounded=1;html=1;whiteSpace=wrap;" vertex="1" parent="1">
            <mxGeometry x="1028" y="431" width="101" height="57" as="geometry" />
          </mxCell>
        </UserObject>
        <mxCell id="-43leVQ_KwWmYCP5Dvzr-79" style="vsdxID=60;fillColor=#ffffff;gradientColor=none;shape=stencil(lZNNboMwEIVP461lz0ANyypJL9AToOAEqwQih7Shpw9hjPwTqqis7DfvyZ+HMcPNpanOmoG4DLb/0j+mHhqGWwZgukZbM0wrhjuGm0Nv9dH2166m/bmanCBmRdeUkQ83iMruP82vJk1wlCqnAiVP/ffjxBvVleRFQeXRJebdB5n3V0tuScVC8Sxzdhn6xQ0chHDC6AQAjij8J9EFMA04ISt5WXoI8b7C4UNOUIq/qZgkZE3hlsPD6yc8/vDWdEHHoODLFcaVxAor8Dwvwy9G91AQdXSBDq+GseMfHUv69edfgRfQMeMCFDYFn+ZopYsv5m5azBNOs2/alh5IWE9fxCTRa8LdHQ==);strokeColor=#282c33;spacingTop=-3;spacingBottom=-3;spacingLeft=-3;spacingRight=-3;points=[[0,0.5,0],[1,0.5,0],[0.5,1,0],[0.5,0,0]];labelBackgroundColor=none;rounded=1;html=1;whiteSpace=wrap;" vertex="1" parent="-43leVQ_KwWmYCP5Dvzr-78">
          <mxGeometry width="101" height="57" as="geometry" />
        </mxCell>
        <mxCell id="-43leVQ_KwWmYCP5Dvzr-80" value="&lt;div style=&quot;font-size: 1px&quot;&gt;&lt;p style=&quot;text-align:center;margin-left:0;margin-right:0;margin-top:0px;margin-bottom:0px;text-indent:0;vertical-align:middle;direction:ltr;&quot;&gt;&lt;font style=&quot;font-size:14.11px;font-family:Arial;color:#3a414a;direction:ltr;letter-spacing:0px;line-height:100%;opacity:1&quot;&gt;Barrer la route des Italiens&lt;/font&gt;&lt;/p&gt;&lt;/div&gt;" style="text;vsdxID=59;fillColor=none;gradientColor=none;strokeColor=none;spacingTop=-3;spacingBottom=-3;spacingLeft=-3;spacingRight=-3;points=[[0,0.5,0],[1,0.5,0],[0.5,1,0],[0.5,0,0],[0.65,1.01,0]];labelBackgroundColor=none;rounded=1;html=1;whiteSpace=wrap;verticalAlign=middle;align=center;overflow=width;;html=1;" vertex="1" parent="-43leVQ_KwWmYCP5Dvzr-78">
          <mxGeometry x="3.17" y="3.02" width="95.25" height="50.8" as="geometry" />
        </mxCell>
        <UserObject label="" tags="Arrière-plan" id="-43leVQ_KwWmYCP5Dvzr-81">
          <mxCell style="vsdxID=61;edgeStyle=none;startArrow=none;endArrow=block;startSize=5;endSize=5;strokeColor=#3a414a;spacingTop=-3;spacingBottom=-3;spacingLeft=-3;spacingRight=-3;verticalAlign=middle;html=1;labelBackgroundColor=none;rounded=1;" edge="1" parent="1">
            <mxGeometry relative="1" as="geometry">
              <mxPoint y="-1" as="offset" />
              <Array as="points" />
              <mxPoint x="1308" y="381" as="sourcePoint" />
              <mxPoint x="1308" y="431" as="targetPoint" />
            </mxGeometry>
          </mxCell>
        </UserObject>
        <UserObject label="" tags="Arrière-plan" id="-43leVQ_KwWmYCP5Dvzr-82">
          <mxCell style="vsdxID=62;fillColor=none;gradientColor=none;strokeColor=none;spacingTop=-3;spacingBottom=-3;spacingLeft=-3;spacingRight=-3;points=[[0,0.5,0],[1,0.5,0],[0.5,1,0],[0.5,0,0]];labelBackgroundColor=none;rounded=1;html=1;whiteSpace=wrap;" vertex="1" parent="1">
            <mxGeometry x="1257" y="431" width="101" height="57" as="geometry" />
          </mxCell>
        </UserObject>
        <mxCell id="-43leVQ_KwWmYCP5Dvzr-83" style="vsdxID=63;fillColor=#ffffff;gradientColor=none;shape=stencil(lZNNboMwEIVP461lz0ANyypJL9AToOAEqwQih7Shpw9hjPwTqqis7DfvyZ+HMcPNpanOmoG4DLb/0j+mHhqGWwZgukZbM0wrhjuGm0Nv9dH2166m/bmanCBmRdeUkQ83iMruP82vJk1wlCqnAiVP/ffjxBvVleRFQeXRJebdB5n3V0tuScVC8Sxzdhn6xQ0chHDC6AQAjij8J9EFMA04ISt5WXoI8b7C4UNOUIq/qZgkZE3hlsPD6yc8/vDWdEHHoODLFcaVxAor8Dwvwy9G91AQdXSBDq+GseMfHUv69edfgRfQMeMCFDYFn+ZopYsv5m5azBNOs2/alh5IWE9fxCTRa8LdHQ==);strokeColor=#282c33;spacingTop=-3;spacingBottom=-3;spacingLeft=-3;spacingRight=-3;points=[[0,0.5,0],[1,0.5,0],[0.5,1,0],[0.5,0,0]];labelBackgroundColor=none;rounded=1;html=1;whiteSpace=wrap;" vertex="1" parent="-43leVQ_KwWmYCP5Dvzr-82">
          <mxGeometry width="101" height="57" as="geometry" />
        </mxCell>
        <mxCell id="-43leVQ_KwWmYCP5Dvzr-84" value="&lt;div style=&quot;font-size: 1px&quot;&gt;&lt;p style=&quot;text-align:center;margin-left:0;margin-right:0;margin-top:0px;margin-bottom:0px;text-indent:0;vertical-align:middle;direction:ltr;&quot;&gt;&lt;font style=&quot;font-size:14.11px;font-family:Arial;color:#3a414a;direction:ltr;letter-spacing:0px;line-height:100%;opacity:1&quot;&gt;Faire obstacle aux Allemands&lt;/font&gt;&lt;/p&gt;&lt;/div&gt;" style="text;vsdxID=62;fillColor=none;gradientColor=none;strokeColor=none;spacingTop=-3;spacingBottom=-3;spacingLeft=-3;spacingRight=-3;points=[[0,0.5,0],[1,0.5,0],[0.5,1,0],[0.5,0,0]];labelBackgroundColor=none;rounded=1;html=1;whiteSpace=wrap;verticalAlign=middle;align=center;overflow=width;;html=1;" vertex="1" parent="-43leVQ_KwWmYCP5Dvzr-82">
          <mxGeometry x="3.17" y="3.02" width="95.25" height="50.8" as="geometry" />
        </mxCell>
        <UserObject label="" tags="Arrière-plan" id="-43leVQ_KwWmYCP5Dvzr-85">
          <mxCell style="vsdxID=64;edgeStyle=none;startArrow=none;endArrow=block;startSize=5;endSize=5;strokeColor=#3a414a;spacingTop=-3;spacingBottom=-3;spacingLeft=-3;spacingRight=-3;verticalAlign=middle;html=1;labelBackgroundColor=none;rounded=1;" edge="1" parent="1">
            <mxGeometry relative="1" as="geometry">
              <mxPoint x="-1" as="offset" />
              <Array as="points">
                <mxPoint x="1308" y="522.29" />
                <mxPoint x="1193.7" y="522.29" />
              </Array>
              <mxPoint x="1308" y="488" as="sourcePoint" />
              <mxPoint x="1193" y="558" as="targetPoint" />
            </mxGeometry>
          </mxCell>
        </UserObject>
        <UserObject label="" tags="Arrière-plan" id="-43leVQ_KwWmYCP5Dvzr-86">
          <mxCell style="vsdxID=65;fillColor=none;gradientColor=none;strokeColor=none;spacingTop=-3;spacingBottom=-3;spacingLeft=-3;spacingRight=-3;points=[[0,0.5,0],[1,0.5,0],[0.5,1,0],[0.5,0,0],[0.47,-0.21,0]];labelBackgroundColor=none;rounded=1;html=1;whiteSpace=wrap;" vertex="1" parent="1">
            <mxGeometry x="1143" y="558" width="101" height="57" as="geometry" />
          </mxCell>
        </UserObject>
        <mxCell id="-43leVQ_KwWmYCP5Dvzr-87" style="vsdxID=66;fillColor=#ffffff;gradientColor=none;shape=stencil(lZNNboMwEIVP461lz0ANyypJL9AToOAEqwQih7Shpw9hjPwTqqis7DfvyZ+HMcPNpanOmoG4DLb/0j+mHhqGWwZgukZbM0wrhjuGm0Nv9dH2166m/bmanCBmRdeUkQ83iMruP82vJk1wlCqnAiVP/ffjxBvVleRFQeXRJebdB5n3V0tuScVC8Sxzdhn6xQ0chHDC6AQAjij8J9EFMA04ISt5WXoI8b7C4UNOUIq/qZgkZE3hlsPD6yc8/vDWdEHHoODLFcaVxAor8Dwvwy9G91AQdXSBDq+GseMfHUv69edfgRfQMeMCFDYFn+ZopYsv5m5azBNOs2/alh5IWE9fxCTRa8LdHQ==);strokeColor=#282c33;spacingTop=-3;spacingBottom=-3;spacingLeft=-3;spacingRight=-3;points=[[0,0.5,0],[1,0.5,0],[0.5,1,0],[0.5,0,0]];labelBackgroundColor=none;rounded=1;html=1;whiteSpace=wrap;" vertex="1" parent="-43leVQ_KwWmYCP5Dvzr-86">
          <mxGeometry width="101" height="57" as="geometry" />
        </mxCell>
        <mxCell id="-43leVQ_KwWmYCP5Dvzr-88" value="&lt;div style=&quot;font-size: 1px&quot;&gt;&lt;p style=&quot;text-align:center;margin-left:0;margin-right:0;margin-top:0px;margin-bottom:0px;text-indent:0;vertical-align:middle;direction:ltr;&quot;&gt;&lt;font style=&quot;font-size:14.11px;font-family:Arial;color:#3a414a;direction:ltr;letter-spacing:0px;line-height:100%;opacity:1&quot;&gt;Mettre fin à l&amp;prime;ours rouge&lt;/font&gt;&lt;/p&gt;&lt;/div&gt;" style="text;vsdxID=65;fillColor=none;gradientColor=none;strokeColor=none;spacingTop=-3;spacingBottom=-3;spacingLeft=-3;spacingRight=-3;points=[[0,0.5,0],[1,0.5,0],[0.5,1,0],[0.5,0,0],[0.47,-0.21,0]];labelBackgroundColor=none;rounded=1;html=1;whiteSpace=wrap;verticalAlign=middle;align=center;overflow=width;;html=1;" vertex="1" parent="-43leVQ_KwWmYCP5Dvzr-86">
          <mxGeometry x="3.17" y="3.02" width="95.25" height="50.8" as="geometry" />
        </mxCell>
        <UserObject label="" tags="Arrière-plan" id="-43leVQ_KwWmYCP5Dvzr-89">
          <mxCell style="vsdxID=67;edgeStyle=none;startArrow=none;endArrow=block;startSize=5;endSize=5;strokeColor=#3a414a;spacingTop=-3;spacingBottom=-3;spacingLeft=-3;spacingRight=-3;verticalAlign=middle;html=1;labelBackgroundColor=none;rounded=1;" edge="1" parent="1">
            <mxGeometry relative="1" as="geometry">
              <mxPoint x="-1" as="offset" />
              <Array as="points">
                <mxPoint x="1099" y="523.29" />
                <mxPoint x="1193.62" y="523.29" />
              </Array>
              <mxPoint x="1099" y="489" as="sourcePoint" />
              <mxPoint x="1193" y="558" as="targetPoint" />
            </mxGeometry>
          </mxCell>
        </UserObject>
        <UserObject label="" tags="Arrière-plan" id="-43leVQ_KwWmYCP5Dvzr-90">
          <mxCell style="vsdxID=68;edgeStyle=none;startArrow=none;endArrow=block;startSize=5;endSize=5;strokeColor=#3a414a;spacingTop=-3;spacingBottom=-3;spacingLeft=-3;spacingRight=-3;verticalAlign=middle;html=1;labelBackgroundColor=none;rounded=1;" edge="1" parent="1">
            <mxGeometry relative="1" as="geometry">
              <mxPoint x="51" as="offset" />
              <Array as="points">
                <mxPoint x="1528.91" y="82" />
                <mxPoint x="1528.91" y="170.9" />
              </Array>
              <mxPoint x="1447" y="82" as="sourcePoint" />
              <mxPoint x="1714" y="114" as="targetPoint" />
            </mxGeometry>
          </mxCell>
        </UserObject>
        <UserObject label="" tags="Arrière-plan" id="-43leVQ_KwWmYCP5Dvzr-91">
          <mxCell style="vsdxID=69;fillColor=none;gradientColor=none;strokeColor=none;spacingTop=-3;spacingBottom=-3;spacingLeft=-3;spacingRight=-3;points=[[0,0.5,0],[1,0.5,0],[0.5,1,0],[0.5,0,0]];labelBackgroundColor=none;rounded=1;html=1;whiteSpace=wrap;" vertex="1" parent="1">
            <mxGeometry x="1663" y="114" width="101" height="57" as="geometry" />
          </mxCell>
        </UserObject>
        <mxCell id="-43leVQ_KwWmYCP5Dvzr-92" style="vsdxID=70;fillColor=#ffffff;gradientColor=none;shape=stencil(lZNNboMwEIVP461lz0ANyypJL9AToOAEqwQih7Shpw9hjPwTqqis7DfvyZ+HMcPNpanOmoG4DLb/0j+mHhqGWwZgukZbM0wrhjuGm0Nv9dH2166m/bmanCBmRdeUkQ83iMruP82vJk1wlCqnAiVP/ffjxBvVleRFQeXRJebdB5n3V0tuScVC8Sxzdhn6xQ0chHDC6AQAjij8J9EFMA04ISt5WXoI8b7C4UNOUIq/qZgkZE3hlsPD6yc8/vDWdEHHoODLFcaVxAor8Dwvwy9G91AQdXSBDq+GseMfHUv69edfgRfQMeMCFDYFn+ZopYsv5m5azBNOs2/alh5IWE9fxCTRa8LdHQ==);strokeColor=#282c33;spacingTop=-3;spacingBottom=-3;spacingLeft=-3;spacingRight=-3;points=[[0,0.5,0],[1,0.5,0],[0.5,1,0],[0.5,0,0]];labelBackgroundColor=none;rounded=1;html=1;whiteSpace=wrap;" vertex="1" parent="-43leVQ_KwWmYCP5Dvzr-91">
          <mxGeometry width="101" height="57" as="geometry" />
        </mxCell>
        <mxCell id="-43leVQ_KwWmYCP5Dvzr-93" value="&lt;div style=&quot;font-size: 1px&quot;&gt;&lt;p style=&quot;text-align:center;margin-left:0;margin-right:0;margin-top:0px;margin-bottom:0px;text-indent:0;vertical-align:middle;direction:ltr;&quot;&gt;&lt;font style=&quot;font-size:14.11px;font-family:Arial;color:#3a414a;direction:ltr;letter-spacing:0px;line-height:100%;opacity:1&quot;&gt;La France, maître du continent !&lt;/font&gt;&lt;/p&gt;&lt;/div&gt;" style="text;vsdxID=69;fillColor=none;gradientColor=none;strokeColor=none;spacingTop=-3;spacingBottom=-3;spacingLeft=-3;spacingRight=-3;points=[[0,0.5,0],[1,0.5,0],[0.5,1,0],[0.5,0,0]];labelBackgroundColor=none;rounded=1;html=1;whiteSpace=wrap;verticalAlign=middle;align=center;overflow=width;;html=1;" vertex="1" parent="-43leVQ_KwWmYCP5Dvzr-91">
          <mxGeometry x="3.17" y="3.02" width="95.25" height="50.8" as="geometry" />
        </mxCell>
        <UserObject label="" tags="Arrière-plan" id="-43leVQ_KwWmYCP5Dvzr-94">
          <mxCell style="vsdxID=71;edgeStyle=none;startArrow=none;endArrow=block;startSize=5;endSize=5;strokeColor=#3a414a;spacingTop=-3;spacingBottom=-3;spacingLeft=-3;spacingRight=-3;verticalAlign=middle;html=1;labelBackgroundColor=none;rounded=1;" edge="1" parent="1">
            <mxGeometry relative="1" as="geometry">
              <mxPoint as="offset" />
              <Array as="points">
                <mxPoint x="1908" y="-139.97" />
                <mxPoint x="2170.7" y="-139.97" />
              </Array>
              <mxPoint x="1908" y="-209" as="sourcePoint" />
              <mxPoint x="2171" y="-71" as="targetPoint" />
            </mxGeometry>
          </mxCell>
        </UserObject>
        <UserObject label="" tags="Arrière-plan" id="-43leVQ_KwWmYCP5Dvzr-95">
          <mxCell style="vsdxID=72;edgeStyle=none;startArrow=none;endArrow=block;startSize=5;endSize=5;strokeColor=#3a414a;spacingTop=-3;spacingBottom=-3;spacingLeft=-3;spacingRight=-3;verticalAlign=middle;html=1;labelBackgroundColor=none;rounded=1;" edge="1" parent="1">
            <mxGeometry relative="1" as="geometry">
              <mxPoint x="-52" y="-1" as="offset" />
              <Array as="points">
                <mxPoint x="1701.93" y="171" />
                <mxPoint x="1701.93" y="272.6" />
              </Array>
              <mxPoint x="1714" y="171" as="sourcePoint" />
              <mxPoint x="1587" y="215" as="targetPoint" />
            </mxGeometry>
          </mxCell>
        </UserObject>
        <UserObject label="" tags="Arrière-plan" id="-43leVQ_KwWmYCP5Dvzr-96">
          <mxCell style="vsdxID=73;fillColor=none;gradientColor=none;strokeColor=none;spacingTop=-3;spacingBottom=-3;spacingLeft=-3;spacingRight=-3;points=[[0,0.5,0],[1,0.5,0],[0.5,1,0],[0.5,0,0]];labelBackgroundColor=none;rounded=1;html=1;whiteSpace=wrap;" vertex="1" parent="1">
            <mxGeometry x="1536" y="215" width="101" height="57" as="geometry" />
          </mxCell>
        </UserObject>
        <mxCell id="-43leVQ_KwWmYCP5Dvzr-97" style="vsdxID=74;fillColor=#ffffff;gradientColor=none;shape=stencil(lZNNboMwEIVP461lz0ANyypJL9AToOAEqwQih7Shpw9hjPwTqqis7DfvyZ+HMcPNpanOmoG4DLb/0j+mHhqGWwZgukZbM0wrhjuGm0Nv9dH2166m/bmanCBmRdeUkQ83iMruP82vJk1wlCqnAiVP/ffjxBvVleRFQeXRJebdB5n3V0tuScVC8Sxzdhn6xQ0chHDC6AQAjij8J9EFMA04ISt5WXoI8b7C4UNOUIq/qZgkZE3hlsPD6yc8/vDWdEHHoODLFcaVxAor8Dwvwy9G91AQdXSBDq+GseMfHUv69edfgRfQMeMCFDYFn+ZopYsv5m5azBNOs2/alh5IWE9fxCTRa8LdHQ==);strokeColor=#282c33;spacingTop=-3;spacingBottom=-3;spacingLeft=-3;spacingRight=-3;points=[[0,0.5,0],[1,0.5,0],[0.5,1,0],[0.5,0,0]];labelBackgroundColor=none;rounded=1;html=1;whiteSpace=wrap;" vertex="1" parent="-43leVQ_KwWmYCP5Dvzr-96">
          <mxGeometry width="101" height="57" as="geometry" />
        </mxCell>
        <mxCell id="-43leVQ_KwWmYCP5Dvzr-98" value="&lt;div style=&quot;font-size: 1px&quot;&gt;&lt;p style=&quot;text-align:center;margin-left:0;margin-right:0;margin-top:0px;margin-bottom:0px;text-indent:0;vertical-align:middle;direction:ltr;&quot;&gt;&lt;font style=&quot;font-size:14.11px;font-family:Arial;color:#3a414a;direction:ltr;letter-spacing:0px;line-height:100%;opacity:1&quot;&gt;Réaffirmer Versailles&lt;/font&gt;&lt;/p&gt;&lt;/div&gt;" style="text;vsdxID=73;fillColor=none;gradientColor=none;strokeColor=none;spacingTop=-3;spacingBottom=-3;spacingLeft=-3;spacingRight=-3;points=[[0,0.5,0],[1,0.5,0],[0.5,1,0],[0.5,0,0]];labelBackgroundColor=none;rounded=1;html=1;whiteSpace=wrap;verticalAlign=middle;align=center;overflow=width;;html=1;" vertex="1" parent="-43leVQ_KwWmYCP5Dvzr-96">
          <mxGeometry x="3.17" y="3.02" width="95.25" height="50.8" as="geometry" />
        </mxCell>
        <UserObject label="" tags="Arrière-plan" id="-43leVQ_KwWmYCP5Dvzr-99">
          <mxCell style="vsdxID=75;edgeStyle=none;startArrow=none;endArrow=block;startSize=5;endSize=5;strokeColor=#3a414a;spacingTop=-3;spacingBottom=-3;spacingLeft=-3;spacingRight=-3;verticalAlign=middle;html=1;labelBackgroundColor=none;rounded=1;" edge="1" parent="1">
            <mxGeometry relative="1" as="geometry">
              <mxPoint x="51" y="-1" as="offset" />
              <Array as="points">
                <mxPoint x="1726.06" y="171" />
                <mxPoint x="1726.06" y="272.6" />
              </Array>
              <mxPoint x="1714" y="171" as="sourcePoint" />
              <mxPoint x="1841" y="215" as="targetPoint" />
            </mxGeometry>
          </mxCell>
        </UserObject>
        <UserObject label="" tags="Arrière-plan" id="-43leVQ_KwWmYCP5Dvzr-100">
          <mxCell style="vsdxID=76;fillColor=none;gradientColor=none;strokeColor=none;spacingTop=-3;spacingBottom=-3;spacingLeft=-3;spacingRight=-3;points=[[0,0.5,0],[1,0.5,0],[0.5,1,0],[0.5,0,0]];labelBackgroundColor=none;rounded=1;html=1;whiteSpace=wrap;" vertex="1" parent="1">
            <mxGeometry x="1790" y="215" width="101" height="57" as="geometry" />
          </mxCell>
        </UserObject>
        <mxCell id="-43leVQ_KwWmYCP5Dvzr-101" style="vsdxID=77;fillColor=#ffffff;gradientColor=none;shape=stencil(lZNNboMwEIVP461lz0ANyypJL9AToOAEqwQih7Shpw9hjPwTqqis7DfvyZ+HMcPNpanOmoG4DLb/0j+mHhqGWwZgukZbM0wrhjuGm0Nv9dH2166m/bmanCBmRdeUkQ83iMruP82vJk1wlCqnAiVP/ffjxBvVleRFQeXRJebdB5n3V0tuScVC8Sxzdhn6xQ0chHDC6AQAjij8J9EFMA04ISt5WXoI8b7C4UNOUIq/qZgkZE3hlsPD6yc8/vDWdEHHoODLFcaVxAor8Dwvwy9G91AQdXSBDq+GseMfHUv69edfgRfQMeMCFDYFn+ZopYsv5m5azBNOs2/alh5IWE9fxCTRa8LdHQ==);strokeColor=#282c33;spacingTop=-3;spacingBottom=-3;spacingLeft=-3;spacingRight=-3;points=[[0,0.5,0],[1,0.5,0],[0.5,1,0],[0.5,0,0]];labelBackgroundColor=none;rounded=1;html=1;whiteSpace=wrap;" vertex="1" parent="-43leVQ_KwWmYCP5Dvzr-100">
          <mxGeometry width="101" height="57" as="geometry" />
        </mxCell>
        <mxCell id="-43leVQ_KwWmYCP5Dvzr-102" value="&lt;div style=&quot;font-size: 1px&quot;&gt;&lt;p style=&quot;text-align:center;margin-left:0;margin-right:0;margin-top:0px;margin-bottom:0px;text-indent:0;vertical-align:middle;direction:ltr;&quot;&gt;&lt;font style=&quot;font-size:14.11px;font-family:Arial;color:#3a414a;direction:ltr;letter-spacing:0px;line-height:100%;opacity:1&quot;&gt;Terminateur&lt;/font&gt;&lt;/p&gt;&lt;/div&gt;" style="text;vsdxID=76;fillColor=none;gradientColor=none;strokeColor=none;spacingTop=-3;spacingBottom=-3;spacingLeft=-3;spacingRight=-3;points=[[0,0.5,0],[1,0.5,0],[0.5,1,0],[0.5,0,0]];labelBackgroundColor=none;rounded=1;html=1;whiteSpace=wrap;verticalAlign=middle;align=center;overflow=width;;html=1;" vertex="1" parent="-43leVQ_KwWmYCP5Dvzr-100">
          <mxGeometry x="3.17" y="3.02" width="95.25" height="50.8" as="geometry" />
        </mxCell>
        <UserObject label="" tags="Arrière-plan" id="-43leVQ_KwWmYCP5Dvzr-103">
          <mxCell style="vsdxID=78;edgeStyle=none;startArrow=none;endArrow=block;startSize=5;endSize=5;strokeColor=#3a414a;spacingTop=-3;spacingBottom=-3;spacingLeft=-3;spacingRight=-3;verticalAlign=middle;html=1;labelBackgroundColor=none;rounded=1;" edge="1" parent="1">
            <mxGeometry relative="1" as="geometry">
              <mxPoint y="-1" as="offset" />
              <Array as="points" />
              <mxPoint x="1587" y="273" as="sourcePoint" />
              <mxPoint x="1587" y="323" as="targetPoint" />
            </mxGeometry>
          </mxCell>
        </UserObject>
        <UserObject label="" tags="Arrière-plan" id="-43leVQ_KwWmYCP5Dvzr-104">
          <mxCell style="vsdxID=79;fillColor=none;gradientColor=none;strokeColor=none;spacingTop=-3;spacingBottom=-3;spacingLeft=-3;spacingRight=-3;points=[[0,0.5,0],[1,0.5,0],[0.5,1,0],[0.5,0,0]];labelBackgroundColor=none;rounded=1;html=1;whiteSpace=wrap;" vertex="1" parent="1">
            <mxGeometry x="1536" y="323" width="101" height="57" as="geometry" />
          </mxCell>
        </UserObject>
        <mxCell id="-43leVQ_KwWmYCP5Dvzr-105" style="vsdxID=80;fillColor=#ffffff;gradientColor=none;shape=stencil(lZNNboMwEIVP461lz0ANyypJL9AToOAEqwQih7Shpw9hjPwTqqis7DfvyZ+HMcPNpanOmoG4DLb/0j+mHhqGWwZgukZbM0wrhjuGm0Nv9dH2166m/bmanCBmRdeUkQ83iMruP82vJk1wlCqnAiVP/ffjxBvVleRFQeXRJebdB5n3V0tuScVC8Sxzdhn6xQ0chHDC6AQAjij8J9EFMA04ISt5WXoI8b7C4UNOUIq/qZgkZE3hlsPD6yc8/vDWdEHHoODLFcaVxAor8Dwvwy9G91AQdXSBDq+GseMfHUv69edfgRfQMeMCFDYFn+ZopYsv5m5azBNOs2/alh5IWE9fxCTRa8LdHQ==);strokeColor=#282c33;spacingTop=-3;spacingBottom=-3;spacingLeft=-3;spacingRight=-3;points=[[0,0.5,0],[1,0.5,0],[0.5,1,0],[0.5,0,0]];labelBackgroundColor=none;rounded=1;html=1;whiteSpace=wrap;" vertex="1" parent="-43leVQ_KwWmYCP5Dvzr-104">
          <mxGeometry width="101" height="57" as="geometry" />
        </mxCell>
        <mxCell id="-43leVQ_KwWmYCP5Dvzr-106" value="&lt;div style=&quot;font-size: 1px&quot;&gt;&lt;p style=&quot;text-align:center;margin-left:0;margin-right:0;margin-top:0px;margin-bottom:0px;text-indent:0;vertical-align:middle;direction:ltr;&quot;&gt;&lt;font style=&quot;font-size:14.11px;font-family:Arial;color:#3a414a;direction:ltr;letter-spacing:0px;line-height:100%;opacity:1&quot;&gt;Terminateur&lt;/font&gt;&lt;/p&gt;&lt;/div&gt;" style="text;vsdxID=79;fillColor=none;gradientColor=none;strokeColor=none;spacingTop=-3;spacingBottom=-3;spacingLeft=-3;spacingRight=-3;points=[[0,0.5,0],[1,0.5,0],[0.5,1,0],[0.5,0,0]];labelBackgroundColor=none;rounded=1;html=1;whiteSpace=wrap;verticalAlign=middle;align=center;overflow=width;;html=1;" vertex="1" parent="-43leVQ_KwWmYCP5Dvzr-104">
          <mxGeometry x="3.17" y="3.02" width="95.25" height="50.8" as="geometry" />
        </mxCell>
        <UserObject label="" tags="Arrière-plan" id="-43leVQ_KwWmYCP5Dvzr-107">
          <mxCell style="vsdxID=81;edgeStyle=none;startArrow=none;endArrow=block;startSize=5;endSize=5;strokeColor=#3a414a;spacingTop=-3;spacingBottom=-3;spacingLeft=-3;spacingRight=-3;verticalAlign=middle;html=1;labelBackgroundColor=none;rounded=1;" edge="1" parent="1">
            <mxGeometry relative="1" as="geometry">
              <mxPoint y="-1" as="offset" />
              <Array as="points" />
              <mxPoint x="1587" y="381" as="sourcePoint" />
              <mxPoint x="1587" y="431" as="targetPoint" />
            </mxGeometry>
          </mxCell>
        </UserObject>
        <UserObject label="" tags="Arrière-plan" id="-43leVQ_KwWmYCP5Dvzr-108">
          <mxCell style="vsdxID=82;fillColor=none;gradientColor=none;strokeColor=none;spacingTop=-3;spacingBottom=-3;spacingLeft=-3;spacingRight=-3;points=[[0,0.5,0],[1,0.5,0],[0.5,1,0],[0.5,0,0]];labelBackgroundColor=none;rounded=1;html=1;whiteSpace=wrap;" vertex="1" parent="1">
            <mxGeometry x="1536" y="431" width="101" height="57" as="geometry" />
          </mxCell>
        </UserObject>
        <mxCell id="-43leVQ_KwWmYCP5Dvzr-109" style="vsdxID=83;fillColor=#ffffff;gradientColor=none;shape=stencil(lZNNboMwEIVP461lz0ANyypJL9AToOAEqwQih7Shpw9hjPwTqqis7DfvyZ+HMcPNpanOmoG4DLb/0j+mHhqGWwZgukZbM0wrhjuGm0Nv9dH2166m/bmanCBmRdeUkQ83iMruP82vJk1wlCqnAiVP/ffjxBvVleRFQeXRJebdB5n3V0tuScVC8Sxzdhn6xQ0chHDC6AQAjij8J9EFMA04ISt5WXoI8b7C4UNOUIq/qZgkZE3hlsPD6yc8/vDWdEHHoODLFcaVxAor8Dwvwy9G91AQdXSBDq+GseMfHUv69edfgRfQMeMCFDYFn+ZopYsv5m5azBNOs2/alh5IWE9fxCTRa8LdHQ==);strokeColor=#282c33;spacingTop=-3;spacingBottom=-3;spacingLeft=-3;spacingRight=-3;points=[[0,0.5,0],[1,0.5,0],[0.5,1,0],[0.5,0,0]];labelBackgroundColor=none;rounded=1;html=1;whiteSpace=wrap;" vertex="1" parent="-43leVQ_KwWmYCP5Dvzr-108">
          <mxGeometry width="101" height="57" as="geometry" />
        </mxCell>
        <mxCell id="-43leVQ_KwWmYCP5Dvzr-110" value="&lt;div style=&quot;font-size: 1px&quot;&gt;&lt;p style=&quot;text-align:center;margin-left:0;margin-right:0;margin-top:0px;margin-bottom:0px;text-indent:0;vertical-align:middle;direction:ltr;&quot;&gt;&lt;font style=&quot;font-size:14.11px;font-family:Arial;color:#3a414a;direction:ltr;letter-spacing:0px;line-height:100%;opacity:1&quot;&gt;Terminateur&lt;/font&gt;&lt;/p&gt;&lt;/div&gt;" style="text;vsdxID=82;fillColor=none;gradientColor=none;strokeColor=none;spacingTop=-3;spacingBottom=-3;spacingLeft=-3;spacingRight=-3;points=[[0,0.5,0],[1,0.5,0],[0.5,1,0],[0.5,0,0]];labelBackgroundColor=none;rounded=1;html=1;whiteSpace=wrap;verticalAlign=middle;align=center;overflow=width;;html=1;" vertex="1" parent="-43leVQ_KwWmYCP5Dvzr-108">
          <mxGeometry x="3.17" y="3.02" width="95.25" height="50.8" as="geometry" />
        </mxCell>
        <UserObject label="" tags="Arrière-plan" id="-43leVQ_KwWmYCP5Dvzr-111">
          <mxCell style="vsdxID=84;edgeStyle=none;startArrow=none;endArrow=block;startSize=5;endSize=5;strokeColor=#3a414a;spacingTop=-3;spacingBottom=-3;spacingLeft=-3;spacingRight=-3;verticalAlign=middle;html=1;labelBackgroundColor=none;rounded=1;" edge="1" parent="1">
            <mxGeometry relative="1" as="geometry">
              <mxPoint y="-1" as="offset" />
              <Array as="points" />
              <mxPoint x="1841" y="273" as="sourcePoint" />
              <mxPoint x="1841" y="323" as="targetPoint" />
            </mxGeometry>
          </mxCell>
        </UserObject>
        <UserObject label="" tags="Arrière-plan" id="-43leVQ_KwWmYCP5Dvzr-112">
          <mxCell style="vsdxID=85;fillColor=none;gradientColor=none;strokeColor=none;spacingTop=-3;spacingBottom=-3;spacingLeft=-3;spacingRight=-3;points=[[0,0.5,0],[1,0.5,0],[0.5,1,0],[0.5,0,0]];labelBackgroundColor=none;rounded=1;html=1;whiteSpace=wrap;" vertex="1" parent="1">
            <mxGeometry x="1790" y="323" width="101" height="57" as="geometry" />
          </mxCell>
        </UserObject>
        <mxCell id="-43leVQ_KwWmYCP5Dvzr-113" style="vsdxID=86;fillColor=#ffffff;gradientColor=none;shape=stencil(lZNNboMwEIVP461lz0ANyypJL9AToOAEqwQih7Shpw9hjPwTqqis7DfvyZ+HMcPNpanOmoG4DLb/0j+mHhqGWwZgukZbM0wrhjuGm0Nv9dH2166m/bmanCBmRdeUkQ83iMruP82vJk1wlCqnAiVP/ffjxBvVleRFQeXRJebdB5n3V0tuScVC8Sxzdhn6xQ0chHDC6AQAjij8J9EFMA04ISt5WXoI8b7C4UNOUIq/qZgkZE3hlsPD6yc8/vDWdEHHoODLFcaVxAor8Dwvwy9G91AQdXSBDq+GseMfHUv69edfgRfQMeMCFDYFn+ZopYsv5m5azBNOs2/alh5IWE9fxCTRa8LdHQ==);strokeColor=#282c33;spacingTop=-3;spacingBottom=-3;spacingLeft=-3;spacingRight=-3;points=[[0,0.5,0],[1,0.5,0],[0.5,1,0],[0.5,0,0]];labelBackgroundColor=none;rounded=1;html=1;whiteSpace=wrap;" vertex="1" parent="-43leVQ_KwWmYCP5Dvzr-112">
          <mxGeometry width="101" height="57" as="geometry" />
        </mxCell>
        <mxCell id="-43leVQ_KwWmYCP5Dvzr-114" value="&lt;div style=&quot;font-size: 1px&quot;&gt;&lt;p style=&quot;text-align:center;margin-left:0;margin-right:0;margin-top:0px;margin-bottom:0px;text-indent:0;vertical-align:middle;direction:ltr;&quot;&gt;&lt;font style=&quot;font-size:14.11px;font-family:Arial;color:#3a414a;direction:ltr;letter-spacing:0px;line-height:100%;opacity:1&quot;&gt;Terminateur&lt;/font&gt;&lt;/p&gt;&lt;/div&gt;" style="text;vsdxID=85;fillColor=none;gradientColor=none;strokeColor=none;spacingTop=-3;spacingBottom=-3;spacingLeft=-3;spacingRight=-3;points=[[0,0.5,0],[1,0.5,0],[0.5,1,0],[0.5,0,0]];labelBackgroundColor=none;rounded=1;html=1;whiteSpace=wrap;verticalAlign=middle;align=center;overflow=width;;html=1;" vertex="1" parent="-43leVQ_KwWmYCP5Dvzr-112">
          <mxGeometry x="3.17" y="3.02" width="95.25" height="50.8" as="geometry" />
        </mxCell>
      </root>
    </mxGraphModel>
  </diagram>
</mxfile>
